<svg width="32" height="32" viewBox="0 0 32 32" fill="none" xmlns="http://www.w3.org/2000/svg">
<path d="M26.1743 9.47917L17.5423 4.11917C17.07 3.8243 16.5244 3.66797 15.9677 3.66797C15.4109 3.66797 14.8653 3.8243 14.393 4.11917L5.76233 9.50984C5.2716 9.8193 4.88212 10.2656 4.64189 10.7937C4.40165 11.3217 4.32116 11.9086 4.41033 12.4818L6.637 25.8512C6.75469 26.5511 7.11885 27.1858 7.66366 27.6406C8.20848 28.0954 8.89801 28.3404 9.60766 28.3312H22.3837C23.0935 28.3407 23.7834 28.0959 24.3285 27.641C24.8736 27.1862 25.2379 26.5513 25.3557 25.8512L27.5823 12.4818C27.6719 11.898 27.5855 11.3008 27.3343 10.7662C27.0831 10.2317 26.6783 9.78409 26.1717 9.48051" stroke="white" stroke-width="2" stroke-linecap="round" stroke-linejoin="round"/>
<path d="M19.4761 15.3828H12.5148C11.5534 15.3828 10.7734 16.1028 10.7734 16.9935V21.8241C10.7734 22.7135 11.5534 23.4348 12.5148 23.4348H19.4774C20.4388 23.4348 21.2188 22.7135 21.2188 21.8241V16.9935C21.2188 16.1041 20.4388 15.3828 19.4774 15.3828" stroke="white" stroke-width="2" stroke-linecap="round" stroke-linejoin="round"/>
<path d="M12.7812 15.384V13.7747C12.7812 13.3518 12.8645 12.9331 13.0264 12.5424C13.1882 12.1518 13.4254 11.7968 13.7244 11.4978C14.0234 11.1988 14.3783 10.9616 14.769 10.7998C15.1597 10.638 15.5784 10.5547 16.0012 10.5547C16.4241 10.5547 16.8428 10.638 17.2335 10.7998C17.6242 10.9616 17.9791 11.1988 18.2781 11.4978C18.5771 11.7968 18.8143 12.1518 18.9761 12.5424C19.138 12.9331 19.2212 13.3518 19.2212 13.7747V15.384" stroke="white" stroke-width="2" stroke-linecap="round" stroke-linejoin="round"/>
</svg>
