<svg width="32" height="32" viewBox="0 0 32 32" fill="none" xmlns="http://www.w3.org/2000/svg">
<path d="M16.0029 18.5859C17.3701 18.5851 18.7159 18.7462 20.041 19.0684C21.3638 19.39 22.6722 19.871 23.9668 20.5156C24.4015 20.7416 24.7491 21.0645 25.0215 21.5078C25.2877 21.9413 25.4196 22.4079 25.4189 22.9346V25.4189H6.58594V22.9355C6.586 22.4073 6.71841 21.9402 6.98438 21.5078C7.25698 21.0648 7.60519 20.7416 8.04004 20.5146C9.33388 19.8688 10.6412 19.3881 11.9629 19.0684C13.2888 18.7477 14.6349 18.5868 16.0029 18.5859ZM16.0039 18.7529C14.6571 18.752 13.3222 18.914 12.0029 19.2393C10.6858 19.564 9.38828 20.047 8.11133 20.6836L8.08691 20.6963L8.0625 20.71C7.71852 20.9011 7.43259 21.1617 7.21094 21.4775L7.12012 21.6162C6.90198 21.9719 6.78291 22.362 6.75781 22.7666L6.75293 22.9355V25.2529H25.2529V22.9355C25.2529 22.4725 25.134 22.0237 24.8877 21.6191C24.6554 21.2376 24.3362 20.9274 23.9414 20.709L23.918 20.6963L23.8945 20.6846C22.6168 20.0457 21.3183 19.5624 20 19.2393C18.682 18.9162 17.3493 18.7539 16.0039 18.7529ZM16.0029 6.58594C17.1353 6.58601 18.0739 6.97432 18.8857 7.78613C19.6976 8.59795 20.0859 9.53658 20.0859 10.6689C20.0859 11.8013 19.6974 12.7399 18.8857 13.5518C18.0739 14.3636 17.1353 14.7529 16.0029 14.7529C14.8704 14.7529 13.932 14.3637 13.1201 13.5518C12.3082 12.7399 11.9189 11.8015 11.9189 10.6689C11.919 9.53658 12.3083 8.59795 13.1201 7.78613C13.9319 6.97446 14.8706 6.58594 16.0029 6.58594ZM16.0059 6.75293C14.9347 6.75034 13.9866 7.1457 13.2324 7.90625C12.4842 8.66087 12.0898 9.60234 12.0859 10.665C12.0821 11.7349 12.48 12.6811 13.2363 13.4375C13.9914 14.1924 14.9353 14.5887 16.0029 14.585V14.5859L16.0049 14.585H16.0078C17.0728 14.5837 18.0156 14.1901 18.7695 13.4375C19.5258 12.6825 19.9202 11.7367 19.9189 10.668C19.9177 9.60152 19.5246 8.65641 18.7705 7.90234C18.0166 7.14849 17.072 6.75557 16.0059 6.75293Z" fill="white" stroke="white" stroke-width="2.5"/>
</svg>
