<svg width="30" height="30" viewBox="0 0 30 30" fill="none" xmlns="http://www.w3.org/2000/svg">
<path d="M12.1875 15.9375H6.5625C6.06522 15.9375 5.58831 16.135 5.23667 16.4867C4.88504 16.8383 4.6875 17.3152 4.6875 17.8125V23.4375C4.6875 23.9348 4.88504 24.4117 5.23667 24.7633C5.58831 25.115 6.06522 25.3125 6.5625 25.3125H12.1875C12.6848 25.3125 13.1617 25.115 13.5133 24.7633C13.865 24.4117 14.0625 23.9348 14.0625 23.4375V17.8125C14.0625 17.3152 13.865 16.8383 13.5133 16.4867C13.1617 16.135 12.6848 15.9375 12.1875 15.9375ZM6.5625 23.4375V17.8125H12.1875V23.4375H6.5625Z" fill="#BA24D5"/>
<path d="M17.8125 19.6875V21.5625H23.4375C23.9348 21.5625 24.4117 21.365 24.7633 21.0133C25.115 20.6617 25.3125 20.1848 25.3125 19.6875V6.5625C25.3125 6.06522 25.115 5.58831 24.7633 5.23667C24.4117 4.88504 23.9348 4.6875 23.4375 4.6875H10.3125C9.81522 4.6875 9.33831 4.88504 8.98668 5.23667C8.63504 5.58831 8.4375 6.06522 8.4375 6.5625V12.1875H10.3125V6.5625H23.4375V19.6875" fill="#BA24D5"/>
</svg>
