<svg width="32" height="31" viewBox="0 0 32 31" fill="none" xmlns="http://www.w3.org/2000/svg">
<path d="M16.1394 3.79297C18.9339 3.79297 21.1973 6.05641 21.1973 8.85093C21.1973 11.6455 18.9339 13.9089 16.1394 13.9089C13.3448 13.9089 11.0814 11.6455 11.0814 8.85093C11.0814 6.05641 13.3448 3.79297 16.1394 3.79297ZM21.1973 17.1207C21.1973 18.4611 20.8433 21.5843 18.4281 25.0743L17.4038 18.9668L18.5925 16.5896C17.8085 16.5011 16.9866 16.4379 16.1394 16.4379C15.2921 16.4379 14.4702 16.5011 13.6862 16.5896L14.8749 18.9668L13.8506 25.0743C11.4355 21.5843 11.0814 18.4611 11.0814 17.1207C8.05927 18.0058 6.02344 19.5991 6.02344 21.4958V26.5538H26.2553V21.4958C26.2553 19.5991 24.2321 18.0058 21.1973 17.1207Z" fill="#BA24D5"/>
</svg>
