<svg width="30" height="24" viewBox="0 0 30 24" fill="none" xmlns="http://www.w3.org/2000/svg">
<path d="M28.6611 22.333V23H1.32812V22.333H28.6611ZM25.6611 1C26.1268 1 26.5011 1.15453 26.8379 1.49121C27.1746 1.82788 27.3286 2.20115 27.3281 2.66504V17.333C27.3281 17.7993 27.1739 18.1741 26.8379 18.5107C26.5029 18.8464 26.1294 19.0005 25.6631 19H4.32812C3.86186 19 3.4879 18.8453 3.15234 18.5098C2.81699 18.1743 2.6617 17.7998 2.66113 17.332V2.66699C2.66113 2.2013 2.81612 1.82786 3.15234 1.49219C3.44747 1.19756 3.77092 1.04233 4.15918 1.00781L4.3291 1H25.6611ZM3.32812 18.333H26.6611V1.66699H3.32812V18.333Z" fill="white" stroke="white" stroke-width="2"/>
</svg>
