<svg width="30" height="27" viewBox="0 0 30 27" fill="none" xmlns="http://www.w3.org/2000/svg">
<path d="M15.6602 26.7529L15.6406 26.7471M15.6602 26.7529L15.6553 26.7393H15.6445L15.6406 26.7471M15.6602 26.7529L15.6758 26.7471M15.6602 26.7529L15.6631 26.7393H15.6699L15.6758 26.7471M15.6406 26.7471L15.6318 26.7402H15.6416L15.6406 26.7471ZM15.6758 26.7471L15.6777 26.7451V26.7402H15.6729L15.6758 26.7471Z" stroke="white" stroke-width="2.5"/>
<path fill-rule="evenodd" clip-rule="evenodd" d="M21.6681 0.335938C22.6855 0.335938 23.5268 0.914604 24.1428 1.5226C24.7841 2.15327 25.3721 3.00127 25.8948 3.93594C26.9441 5.8106 27.8575 8.25994 28.4615 10.6799C29.0615 13.0813 29.3935 15.5893 29.1815 17.5613C28.9681 19.5413 27.9481 21.6693 25.6681 21.6693C23.7001 21.6693 22.1321 20.6559 20.8495 19.6279L20.3815 19.2426L19.7255 18.6893L19.1335 18.1986C17.7748 17.0986 16.5681 16.3359 15.0015 16.3359C13.4348 16.3359 12.2281 17.0986 10.8695 18.1986L10.2775 18.6893L9.62147 19.2426L9.1548 19.6279C7.86947 20.6559 6.30147 21.6693 4.3348 21.6693C2.05347 21.6693 1.03347 19.5413 0.821467 17.5613C0.610801 15.5879 0.941467 13.0813 1.54147 10.6799C2.14547 8.25994 3.0588 5.8106 4.10813 3.9346C4.6308 3.00127 5.2188 2.15327 5.86013 1.52127C6.47613 0.914604 7.31747 0.335938 8.3348 0.335938C9.02147 0.335938 9.69213 0.499937 10.3521 0.695937L11.1415 0.937271C11.273 0.97816 11.4041 1.01683 11.5348 1.05327C12.6881 1.38394 13.8681 1.66927 15.0015 1.66927C16.1348 1.66927 17.3148 1.38394 18.4681 1.05327L19.6481 0.697271C20.3121 0.501271 20.9881 0.335938 21.6681 0.335938ZM21.6681 3.0026C21.1575 3.0026 20.6241 3.15727 20.1068 3.3266L19.4961 3.52794L19.2015 3.6186C18.0215 3.9546 16.5348 4.33594 15.0015 4.33594C13.4681 4.33594 11.9815 3.9546 10.8015 3.6186L10.5081 3.52794L9.89613 3.3266C9.3788 3.15594 8.84547 3.0026 8.3348 3.0026C7.77747 3.1066 7.27747 3.7826 6.90013 4.40927L6.68947 4.77594L6.43613 5.23727C5.5268 6.86127 4.68947 9.07727 4.12947 11.3266C3.6028 13.4279 3.3468 15.4413 3.44413 16.9399L3.4788 17.3306L3.50547 17.5653L3.54547 17.8426C3.63747 18.3773 3.83613 19.0026 4.3348 19.0026C5.41747 19.0026 6.32147 18.4639 7.44547 17.5706L7.9828 17.1333L8.99613 16.2853L9.4548 15.9119C10.8735 14.7879 12.6481 13.6693 15.0015 13.6693C17.3548 13.6693 19.1295 14.7893 20.5481 15.9119L21.0081 16.2853L22.0215 17.1333L22.5575 17.5706C23.6815 18.4639 24.5841 19.0026 25.6681 19.0026C26.1215 19.0026 26.3268 18.4866 26.4295 17.9906L26.4801 17.6999L26.5295 17.2773C26.6935 15.7493 26.4401 13.5906 25.8748 11.3266C25.3601 9.26527 24.6135 7.2306 23.7921 5.6546L23.3135 4.7746L23.1028 4.4106C22.7255 3.7826 22.2255 3.1066 21.6681 3.0026ZM10.3348 5.66927C11.2189 5.66927 12.0667 6.02046 12.6918 6.64558C13.3169 7.2707 13.6681 8.11855 13.6681 9.0026C13.6681 9.88666 13.3169 10.7345 12.6918 11.3596C12.0667 11.9847 11.2189 12.3359 10.3348 12.3359C9.45075 12.3359 8.6029 11.9847 7.97778 11.3596C7.35266 10.7345 7.00147 9.88666 7.00147 9.0026C7.00147 8.11855 7.35266 7.2707 7.97778 6.64558C8.6029 6.02046 9.45075 5.66927 10.3348 5.66927ZM19.6681 5.66927C19.9947 5.66931 20.3099 5.78921 20.554 6.00622C20.798 6.22324 20.9539 6.52227 20.9921 6.8466L21.0015 7.0026V7.66927H21.6681C22.008 7.66965 22.3348 7.79978 22.582 8.03307C22.8291 8.26636 22.9778 8.58521 22.9977 8.92446C23.0176 9.26372 22.9072 9.59778 22.6891 9.85838C22.471 10.119 22.1616 10.2865 21.8241 10.3266L21.6681 10.3359H21.0015V11.0026C21.0011 11.3424 20.871 11.6693 20.6377 11.9164C20.4044 12.1635 20.0855 12.3123 19.7463 12.3322C19.407 12.3521 19.073 12.2417 18.8124 12.0236C18.5518 11.8055 18.3843 11.4961 18.3441 11.1586L18.3348 11.0026V10.3359H17.6681C17.3283 10.3356 17.0014 10.2054 16.7543 9.97214C16.5072 9.73885 16.3585 9.42 16.3386 9.08074C16.3187 8.74149 16.429 8.40743 16.6472 8.14683C16.8653 7.88622 17.1747 7.71874 17.5121 7.6786L17.6681 7.66927H18.3348V7.0026C18.3348 6.64898 18.4753 6.30984 18.7253 6.0598C18.9754 5.80975 19.3145 5.66927 19.6681 5.66927ZM10.3348 8.33594C10.158 8.33594 9.98842 8.40618 9.8634 8.5312C9.73837 8.65622 9.66813 8.82579 9.66813 9.0026C9.66813 9.17942 9.73837 9.34899 9.8634 9.47401C9.98842 9.59903 10.158 9.66927 10.3348 9.66927C10.5116 9.66927 10.6812 9.59903 10.8062 9.47401C10.9312 9.34899 11.0015 9.17942 11.0015 9.0026C11.0015 8.82579 10.9312 8.65622 10.8062 8.5312C10.6812 8.40618 10.5116 8.33594 10.3348 8.33594Z" fill="white"/>
</svg>
