<svg width="26" height="24" viewBox="0 0 26 24" fill="none" xmlns="http://www.w3.org/2000/svg">
<mask id="path-1-inside-1_67564_35980" fill="white">
<path d="M12.8554 21.1172C12.9332 21.1172 13.011 21.0977 13.0887 21.0589C13.1665 21.02 13.2249 20.9811 13.2638 20.9422L22.8304 11.3755C23.0637 11.1422 23.2341 10.8797 23.3414 10.588C23.4488 10.2964 23.502 10.0047 23.5012 9.71302C23.5012 9.40191 23.448 9.10519 23.3414 8.82285C23.2349 8.54052 23.0645 8.2928 22.8304 8.07969L17.8721 3.12135C17.6582 2.88802 17.4101 2.71808 17.1277 2.61152C16.8454 2.50497 16.5495 2.4513 16.2399 2.45052C15.9482 2.45052 15.6566 2.50419 15.3649 2.61152C15.0732 2.71885 14.8107 2.8888 14.5774 3.12135L14.2566 3.44219L16.4149 5.62969C16.7066 5.90191 16.9205 6.21302 17.0566 6.56302C17.1927 6.91302 17.2607 7.28247 17.2607 7.67135C17.2607 8.48802 16.9839 9.17363 16.4301 9.72819C15.8763 10.2827 15.1907 10.5596 14.3732 10.5589C13.9844 10.5589 13.6102 10.4908 13.2509 10.3547C12.8916 10.2186 12.5754 10.0144 12.3024 9.74219L10.1137 7.58385L5.00958 12.688C4.95125 12.7464 4.90769 12.8097 4.87892 12.8782C4.85014 12.9466 4.83536 13.0194 4.83458 13.0964C4.83458 13.2519 4.89292 13.3931 5.00958 13.5199C5.12625 13.6466 5.26236 13.7096 5.41792 13.7089C5.49569 13.7089 5.57347 13.6894 5.65125 13.6505C5.72903 13.6116 5.78736 13.5727 5.82625 13.5339L9.79292 9.56719L11.4262 11.2005L7.48875 15.1672C7.43042 15.2255 7.38686 15.2889 7.35808 15.3574C7.32931 15.4258 7.31453 15.4985 7.31375 15.5755C7.31375 15.7311 7.37208 15.8672 7.48875 15.9839C7.60542 16.1005 7.74153 16.1589 7.89708 16.1589C7.97486 16.1589 8.05264 16.1394 8.13042 16.1005C8.20819 16.0616 8.26653 16.0227 8.30542 15.9839L12.2721 12.0464L13.9054 13.6797L9.96792 17.6464C9.90958 17.6852 9.86603 17.7436 9.83725 17.8214C9.80847 17.8991 9.79369 17.9769 9.79292 18.0547C9.79292 18.2102 9.85125 18.3464 9.96792 18.463C10.0846 18.5797 10.2207 18.638 10.3762 18.638C10.454 18.638 10.5271 18.6232 10.5956 18.5937C10.664 18.5641 10.727 18.5206 10.7846 18.463L14.7512 14.5255L16.3846 16.1589L12.4179 20.1255C12.3596 20.1839 12.316 20.2469 12.2872 20.3145C12.2585 20.3822 12.2437 20.4553 12.2429 20.5339C12.2429 20.6894 12.3063 20.8255 12.4331 20.9422C12.5599 21.0589 12.7006 21.1172 12.8554 21.1172ZM12.8263 23.4505C12.1068 23.4505 11.4702 23.2125 10.9164 22.7365C10.3626 22.2605 10.0367 21.6624 9.93875 20.9422C9.27764 20.845 8.72347 20.5727 8.27625 20.1255C7.82903 19.6783 7.55681 19.1241 7.45958 18.463C6.79847 18.3658 6.24936 18.0889 5.81225 17.6324C5.37514 17.1758 5.10758 16.6263 5.00958 15.9839C4.27069 15.8866 3.66792 15.5658 3.20125 15.0214C2.73458 14.4769 2.50125 13.8352 2.50125 13.0964C2.50125 12.7075 2.57436 12.3334 2.72058 11.974C2.86681 11.6147 3.07564 11.2985 3.34708 11.0255L10.1137 4.28802L13.9346 8.10885C13.9735 8.16719 14.0318 8.21113 14.1096 8.24069C14.1874 8.27024 14.2651 8.28463 14.3429 8.28385C14.5179 8.28385 14.6637 8.23058 14.7804 8.12402C14.8971 8.01746 14.9554 7.8763 14.9554 7.70052C14.9554 7.62274 14.9406 7.54497 14.9111 7.46719C14.8815 7.38941 14.838 7.33108 14.7804 7.29219L10.6096 3.12135C10.3957 2.88802 10.148 2.71808 9.86642 2.61152C9.58486 2.50497 9.28814 2.4513 8.97625 2.45052C8.68458 2.45052 8.39292 2.50419 8.10125 2.61152C7.80958 2.71885 7.54708 2.8888 7.31375 3.12135L3.20125 7.26302C3.02625 7.43802 2.88042 7.64219 2.76375 7.87552C2.64708 8.10885 2.56931 8.34219 2.53042 8.57552C2.49153 8.80885 2.49153 9.04724 2.53042 9.29069C2.56931 9.53413 2.64708 9.76241 2.76375 9.97552L1.07208 11.6672C0.741528 11.22 0.498472 10.7292 0.342917 10.1949C0.187361 9.66052 0.129028 9.12074 0.167917 8.57552C0.206806 8.0303 0.342917 7.50063 0.57625 6.98652C0.809583 6.47241 1.13042 6.01041 1.53875 5.60052L5.65125 1.48802C6.11792 1.0408 6.63825 0.700521 7.21225 0.467187C7.78625 0.233854 8.37425 0.117187 8.97625 0.117188C9.57825 0.117188 10.1666 0.233854 10.7414 0.467187C11.3162 0.700521 11.8264 1.0408 12.2721 1.48802L12.5929 1.80885L12.9138 1.48802C13.3804 1.0408 13.9007 0.700521 14.4747 0.467187C15.0487 0.233854 15.6367 0.117188 16.2387 0.117188C16.8407 0.117187 17.4291 0.233854 18.0039 0.467187C18.5787 0.700521 19.0889 1.0408 19.5346 1.48802L24.4638 6.41719C24.911 6.86441 25.2513 7.37969 25.4846 7.96302C25.7179 8.54635 25.8346 9.13941 25.8346 9.74219C25.8346 10.345 25.7179 10.9334 25.4846 11.5074C25.2513 12.0814 24.911 12.5916 24.4638 13.038L14.8971 22.5755C14.6249 22.8477 14.3091 23.0616 13.9497 23.2172C13.5904 23.3727 13.2159 23.4505 12.8263 23.4505Z"/>
</mask>
<path d="M12.8554 21.1172C12.9332 21.1172 13.011 21.0977 13.0887 21.0589C13.1665 21.02 13.2249 20.9811 13.2638 20.9422L22.8304 11.3755C23.0637 11.1422 23.2341 10.8797 23.3414 10.588C23.4488 10.2964 23.502 10.0047 23.5012 9.71302C23.5012 9.40191 23.448 9.10519 23.3414 8.82285C23.2349 8.54052 23.0645 8.2928 22.8304 8.07969L17.8721 3.12135C17.6582 2.88802 17.4101 2.71808 17.1277 2.61152C16.8454 2.50497 16.5495 2.4513 16.2399 2.45052C15.9482 2.45052 15.6566 2.50419 15.3649 2.61152C15.0732 2.71885 14.8107 2.8888 14.5774 3.12135L14.2566 3.44219L16.4149 5.62969C16.7066 5.90191 16.9205 6.21302 17.0566 6.56302C17.1927 6.91302 17.2607 7.28247 17.2607 7.67135C17.2607 8.48802 16.9839 9.17363 16.4301 9.72819C15.8763 10.2827 15.1907 10.5596 14.3732 10.5589C13.9844 10.5589 13.6102 10.4908 13.2509 10.3547C12.8916 10.2186 12.5754 10.0144 12.3024 9.74219L10.1137 7.58385L5.00958 12.688C4.95125 12.7464 4.90769 12.8097 4.87892 12.8782C4.85014 12.9466 4.83536 13.0194 4.83458 13.0964C4.83458 13.2519 4.89292 13.3931 5.00958 13.5199C5.12625 13.6466 5.26236 13.7096 5.41792 13.7089C5.49569 13.7089 5.57347 13.6894 5.65125 13.6505C5.72903 13.6116 5.78736 13.5727 5.82625 13.5339L9.79292 9.56719L11.4262 11.2005L7.48875 15.1672C7.43042 15.2255 7.38686 15.2889 7.35808 15.3574C7.32931 15.4258 7.31453 15.4985 7.31375 15.5755C7.31375 15.7311 7.37208 15.8672 7.48875 15.9839C7.60542 16.1005 7.74153 16.1589 7.89708 16.1589C7.97486 16.1589 8.05264 16.1394 8.13042 16.1005C8.20819 16.0616 8.26653 16.0227 8.30542 15.9839L12.2721 12.0464L13.9054 13.6797L9.96792 17.6464C9.90958 17.6852 9.86603 17.7436 9.83725 17.8214C9.80847 17.8991 9.79369 17.9769 9.79292 18.0547C9.79292 18.2102 9.85125 18.3464 9.96792 18.463C10.0846 18.5797 10.2207 18.638 10.3762 18.638C10.454 18.638 10.5271 18.6232 10.5956 18.5937C10.664 18.5641 10.727 18.5206 10.7846 18.463L14.7512 14.5255L16.3846 16.1589L12.4179 20.1255C12.3596 20.1839 12.316 20.2469 12.2872 20.3145C12.2585 20.3822 12.2437 20.4553 12.2429 20.5339C12.2429 20.6894 12.3063 20.8255 12.4331 20.9422C12.5599 21.0589 12.7006 21.1172 12.8554 21.1172ZM12.8263 23.4505C12.1068 23.4505 11.4702 23.2125 10.9164 22.7365C10.3626 22.2605 10.0367 21.6624 9.93875 20.9422C9.27764 20.845 8.72347 20.5727 8.27625 20.1255C7.82903 19.6783 7.55681 19.1241 7.45958 18.463C6.79847 18.3658 6.24936 18.0889 5.81225 17.6324C5.37514 17.1758 5.10758 16.6263 5.00958 15.9839C4.27069 15.8866 3.66792 15.5658 3.20125 15.0214C2.73458 14.4769 2.50125 13.8352 2.50125 13.0964C2.50125 12.7075 2.57436 12.3334 2.72058 11.974C2.86681 11.6147 3.07564 11.2985 3.34708 11.0255L10.1137 4.28802L13.9346 8.10885C13.9735 8.16719 14.0318 8.21113 14.1096 8.24069C14.1874 8.27024 14.2651 8.28463 14.3429 8.28385C14.5179 8.28385 14.6637 8.23058 14.7804 8.12402C14.8971 8.01746 14.9554 7.8763 14.9554 7.70052C14.9554 7.62274 14.9406 7.54497 14.9111 7.46719C14.8815 7.38941 14.838 7.33108 14.7804 7.29219L10.6096 3.12135C10.3957 2.88802 10.148 2.71808 9.86642 2.61152C9.58486 2.50497 9.28814 2.4513 8.97625 2.45052C8.68458 2.45052 8.39292 2.50419 8.10125 2.61152C7.80958 2.71885 7.54708 2.8888 7.31375 3.12135L3.20125 7.26302C3.02625 7.43802 2.88042 7.64219 2.76375 7.87552C2.64708 8.10885 2.56931 8.34219 2.53042 8.57552C2.49153 8.80885 2.49153 9.04724 2.53042 9.29069C2.56931 9.53413 2.64708 9.76241 2.76375 9.97552L1.07208 11.6672C0.741528 11.22 0.498472 10.7292 0.342917 10.1949C0.187361 9.66052 0.129028 9.12074 0.167917 8.57552C0.206806 8.0303 0.342917 7.50063 0.57625 6.98652C0.809583 6.47241 1.13042 6.01041 1.53875 5.60052L5.65125 1.48802C6.11792 1.0408 6.63825 0.700521 7.21225 0.467187C7.78625 0.233854 8.37425 0.117187 8.97625 0.117188C9.57825 0.117188 10.1666 0.233854 10.7414 0.467187C11.3162 0.700521 11.8264 1.0408 12.2721 1.48802L12.5929 1.80885L12.9138 1.48802C13.3804 1.0408 13.9007 0.700521 14.4747 0.467187C15.0487 0.233854 15.6367 0.117188 16.2387 0.117188C16.8407 0.117187 17.4291 0.233854 18.0039 0.467187C18.5787 0.700521 19.0889 1.0408 19.5346 1.48802L24.4638 6.41719C24.911 6.86441 25.2513 7.37969 25.4846 7.96302C25.7179 8.54635 25.8346 9.13941 25.8346 9.74219C25.8346 10.345 25.7179 10.9334 25.4846 11.5074C25.2513 12.0814 24.911 12.5916 24.4638 13.038L14.8971 22.5755C14.6249 22.8477 14.3091 23.0616 13.9497 23.2172C13.5904 23.3727 13.2159 23.4505 12.8263 23.4505Z" fill="white" stroke="white" stroke-width="5.6" mask="url(#path-1-inside-1_67564_35980)"/>
</svg>
