<svg width="32" height="32" viewBox="0 0 32 32" fill="none" xmlns="http://www.w3.org/2000/svg">
<mask id="path-1-inside-1_63804_63862" fill="white">
<path d="M26 13C27.0605 12.9987 28.0771 12.5768 28.827 11.827C29.5768 11.0771 29.9987 10.0605 30 9V6H27C25.9762 6.00162 24.9923 6.39773 24.253 7.106C23.7353 6.16575 22.9748 5.38159 22.0509 4.83528C21.1269 4.28898 20.0734 4.00052 19 4H16V7C16.0019 8.59073 16.6346 10.1158 17.7594 11.2406C18.8842 12.3654 20.4093 12.9981 22 13H23V26H11V21H12C13.0605 20.9987 14.0771 20.5768 14.827 19.827C15.5768 19.0771 15.9987 18.0605 16 17V14H13C11.9762 14.0016 10.9923 14.3977 10.253 15.106C9.73528 14.1657 8.97481 13.3816 8.05087 12.8353C7.12694 12.289 6.07336 12.0005 5 12H2V15C2.00185 16.5907 2.63459 18.1158 3.75941 19.2406C4.88422 20.3654 6.40927 20.9981 8 21H9V26H2V28H30V26H25V13H26ZM25 10C25 9.46957 25.2107 8.96086 25.5858 8.58579C25.9609 8.21071 26.4696 8 27 8H28V9C28 9.53043 27.7893 10.0391 27.4142 10.4142C27.0391 10.7893 26.5304 11 26 11H25V10ZM11 18C11 17.4696 11.2107 16.9609 11.5858 16.5858C11.9609 16.2107 12.4696 16 13 16H14V17C14 17.5304 13.7893 18.0391 13.4142 18.4142C13.0391 18.7893 12.5304 19 12 19H11V18ZM9 19H8C6.93954 18.9987 5.92289 18.5768 5.17303 17.827C4.42318 17.0771 4.00132 16.0605 4 15V14H5C6.06046 14.0013 7.07711 14.4232 7.82697 15.173C8.57682 15.9229 8.99868 16.9395 9 18V19ZM23 11H22C20.9395 10.9987 19.9229 10.5768 19.173 9.82697C18.4232 9.07711 18.0013 8.06046 18 7V6H19C20.0605 6.00132 21.0771 6.42318 21.827 7.17303C22.5768 7.92289 22.9987 8.93954 23 10V11Z"/>
</mask>
<path d="M26 13C27.0605 12.9987 28.0771 12.5768 28.827 11.827C29.5768 11.0771 29.9987 10.0605 30 9V6H27C25.9762 6.00162 24.9923 6.39773 24.253 7.106C23.7353 6.16575 22.9748 5.38159 22.0509 4.83528C21.1269 4.28898 20.0734 4.00052 19 4H16V7C16.0019 8.59073 16.6346 10.1158 17.7594 11.2406C18.8842 12.3654 20.4093 12.9981 22 13H23V26H11V21H12C13.0605 20.9987 14.0771 20.5768 14.827 19.827C15.5768 19.0771 15.9987 18.0605 16 17V14H13C11.9762 14.0016 10.9923 14.3977 10.253 15.106C9.73528 14.1657 8.97481 13.3816 8.05087 12.8353C7.12694 12.289 6.07336 12.0005 5 12H2V15C2.00185 16.5907 2.63459 18.1158 3.75941 19.2406C4.88422 20.3654 6.40927 20.9981 8 21H9V26H2V28H30V26H25V13H26ZM25 10C25 9.46957 25.2107 8.96086 25.5858 8.58579C25.9609 8.21071 26.4696 8 27 8H28V9C28 9.53043 27.7893 10.0391 27.4142 10.4142C27.0391 10.7893 26.5304 11 26 11H25V10ZM11 18C11 17.4696 11.2107 16.9609 11.5858 16.5858C11.9609 16.2107 12.4696 16 13 16H14V17C14 17.5304 13.7893 18.0391 13.4142 18.4142C13.0391 18.7893 12.5304 19 12 19H11V18ZM9 19H8C6.93954 18.9987 5.92289 18.5768 5.17303 17.827C4.42318 17.0771 4.00132 16.0605 4 15V14H5C6.06046 14.0013 7.07711 14.4232 7.82697 15.173C8.57682 15.9229 8.99868 16.9395 9 18V19ZM23 11H22C20.9395 10.9987 19.9229 10.5768 19.173 9.82697C18.4232 9.07711 18.0013 8.06046 18 7V6H19C20.0605 6.00132 21.0771 6.42318 21.827 7.17303C22.5768 7.92289 22.9987 8.93954 23 10V11Z" fill="white"/>
<path d="M26 13L26 15.5L26.0031 15.5L26 13ZM30 9L32.5 9.00312V9H30ZM30 6H32.5V3.5H30V6ZM27 6L27 3.5L26.9961 3.5L27 6ZM24.253 7.106L22.063 8.31183L23.6326 11.1624L25.9824 8.91127L24.253 7.106ZM19 4L19.0012 1.5H19V4ZM16 4V1.5H13.5V4H16ZM16 7L13.5 7L13.5 7.00291L16 7ZM22 13L21.9971 15.5H22V13ZM23 13H25.5V10.5H23V13ZM23 26V28.5H25.5V26H23ZM11 26H8.5V28.5H11V26ZM11 21V18.5H8.5V21H11ZM12 21L12 23.5L12.0031 23.5L12 21ZM16 17L18.5 17.0031V17H16ZM16 14H18.5V11.5H16V14ZM13 14L13 11.5L12.9961 11.5L13 14ZM10.253 15.106L8.06303 16.3118L9.63261 19.1624L11.9824 16.9113L10.253 15.106ZM5 12L5.00122 9.5H5V12ZM2 12V9.5H-0.5V12H2ZM2 15L-0.500002 15L-0.499998 15.0029L2 15ZM8 21L7.99709 23.5H8V21ZM9 21H11.5V18.5H9V21ZM9 26V28.5H11.5V26H9ZM2 26V23.5H-0.5V26H2ZM2 28H-0.5V30.5H2V28ZM30 28V30.5H32.5V28H30ZM30 26H32.5V23.5H30V26ZM25 26H22.5V28.5H25V26ZM25 13V10.5H22.5V13H25ZM27 8V10.5V8ZM28 8H30.5V5.5H28V8ZM25 11H22.5V13.5H25V11ZM13 16V18.5V16ZM14 16H16.5V13.5H14V16ZM11 19H8.5V21.5H11V19ZM9 19V21.5H11.5V19H9ZM8 19L7.99688 21.5H8V19ZM4 15L1.5 15L1.5 15.0031L4 15ZM4 14V11.5H1.5V14H4ZM5 14L5.00312 11.5H5V14ZM9 18L11.5 18L11.5 17.9969L9 18ZM23 11V13.5H25.5V11H23ZM22 11L21.9969 13.5H22V11ZM18 7L15.5 7L15.5 7.00312L18 7ZM18 6V3.5H15.5V6H18ZM19 6L19.0031 3.5H19V6ZM23 10L25.5 10L25.5 9.99688L23 10ZM26 13L26.0031 15.5C27.7255 15.4978 29.3768 14.8127 30.5947 13.5947L28.827 11.827L27.0592 10.0592C26.7774 10.341 26.3954 10.4995 25.9969 10.5L26 13ZM28.827 11.827L30.5947 13.5947C31.8127 12.3768 32.4978 10.7255 32.5 9.00312L30 9L27.5 8.99688C27.4995 9.39538 27.341 9.77742 27.0592 10.0592L28.827 11.827ZM30 9H32.5V6H30H27.5V9H30ZM30 6V3.5H27V6V8.5H30V6ZM27 6L26.9961 3.5C25.3291 3.50263 23.7273 4.14756 22.5236 5.30073L24.253 7.106L25.9824 8.91127C26.2574 8.6479 26.6232 8.5006 27.0039 8.5L27 6ZM24.253 7.106L26.443 5.90017C25.7095 4.56814 24.6322 3.45725 23.3233 2.68332L22.0509 4.83528L20.7785 6.98725C21.3174 7.30593 21.761 7.76335 22.063 8.31183L24.253 7.106ZM22.0509 4.83528L23.3233 2.68332C22.0144 1.90938 20.5218 1.50074 19.0012 1.5L19 4L18.9988 6.5C19.6249 6.50031 20.2395 6.66857 20.7785 6.98725L22.0509 4.83528ZM19 4V1.5H16V4V6.5H19V4ZM16 4H13.5V7H16H18.5V4H16ZM16 7L13.5 7.00291C13.5026 9.25567 14.3987 11.4154 15.9916 13.0084L17.7594 11.2406L19.5272 9.47283C18.8705 8.81614 18.5011 7.92579 18.5 6.99709L16 7ZM17.7594 11.2406L15.9916 13.0084C17.5846 14.6013 19.7443 15.4974 21.9971 15.5L22 13L22.0029 10.5C21.0742 10.4989 20.1839 10.1295 19.5272 9.47283L17.7594 11.2406ZM22 13V15.5H23V13V10.5H22V13ZM23 13H20.5V26H23H25.5V13H23ZM23 26V23.5H11V26V28.5H23V26ZM11 26H13.5V21H11H8.5V26H11ZM11 21V23.5H12V21V18.5H11V21ZM12 21L12.0031 23.5C13.7255 23.4978 15.3768 22.8127 16.5947 21.5947L14.827 19.827L13.0592 18.0592C12.7774 18.341 12.3954 18.4995 11.9969 18.5L12 21ZM14.827 19.827L16.5947 21.5947C17.8127 20.3768 18.4978 18.7255 18.5 17.0031L16 17L13.5 16.9969C13.4995 17.3954 13.341 17.7774 13.0592 18.0592L14.827 19.827ZM16 17H18.5V14H16H13.5V17H16ZM16 14V11.5H13V14V16.5H16V14ZM13 14L12.9961 11.5C11.3291 11.5026 9.72728 12.1476 8.52355 13.3007L10.253 15.106L11.9824 16.9113C12.2574 16.6479 12.6232 16.5006 13.0039 16.5L13 14ZM10.253 15.106L12.443 13.9002C11.7095 12.5681 10.6322 11.4573 9.32329 10.6833L8.05087 12.8353L6.77846 14.9872C7.31742 15.3059 7.76103 15.7634 8.06303 16.3118L10.253 15.106ZM8.05087 12.8353L9.32329 10.6833C8.01438 9.90938 6.52182 9.50074 5.00122 9.5L5 12L4.99878 14.5C5.62491 14.5003 6.23949 14.6686 6.77846 14.9872L8.05087 12.8353ZM5 12V9.5H2V12V14.5H5V12ZM2 12H-0.5V15H2H4.5V12H2ZM2 15L-0.499998 15.0029C-0.497375 17.2557 0.398694 19.4154 1.99164 21.0084L3.75941 19.2406L5.52717 17.4728C4.87048 16.8161 4.50108 15.9258 4.5 14.9971L2 15ZM3.75941 19.2406L1.99164 21.0084C3.58458 22.6013 5.74433 23.4974 7.99709 23.5L8 21L8.00291 18.5C7.07421 18.4989 6.18386 18.1295 5.52717 17.4728L3.75941 19.2406ZM8 21V23.5H9V21V18.5H8V21ZM9 21H6.5V26H9H11.5V21H9ZM9 26V23.5H2V26V28.5H9V26ZM2 26H-0.5V28H2H4.5V26H2ZM2 28V30.5H30V28V25.5H2V28ZM30 28H32.5V26H30H27.5V28H30ZM30 26V23.5H25V26V28.5H30V26ZM25 26H27.5V13H25H22.5V26H25ZM25 13V15.5H26V13V10.5H25V13ZM25 10H27.5C27.5 10.1326 27.4473 10.2598 27.3536 10.3536L25.5858 8.58579L23.818 6.81802C22.9741 7.66193 22.5 8.80652 22.5 10H25ZM25.5858 8.58579L27.3536 10.3536C27.2598 10.4473 27.1326 10.5 27 10.5L27 8L27 5.5C25.8065 5.5 24.6619 5.97411 23.818 6.81802L25.5858 8.58579ZM27 8V10.5H28V8V5.5H27V8ZM28 8H25.5V9H28H30.5V8H28ZM28 9H25.5C25.5 8.86739 25.5527 8.74021 25.6464 8.64645L27.4142 10.4142L29.182 12.182C30.0259 11.3381 30.5 10.1935 30.5 9H28ZM27.4142 10.4142L25.6464 8.64645C25.7402 8.55268 25.8674 8.5 26 8.5V11V13.5C27.1935 13.5 28.3381 13.0259 29.182 12.182L27.4142 10.4142ZM26 11V8.5H25V11V13.5H26V11ZM25 11H27.5V10H25H22.5V11H25ZM11 18H13.5C13.5 18.1326 13.4473 18.2598 13.3536 18.3536L11.5858 16.5858L9.81802 14.818C8.97411 15.6619 8.5 16.8065 8.5 18H11ZM11.5858 16.5858L13.3536 18.3536C13.2598 18.4473 13.1326 18.5 13 18.5L13 16L13 13.5C11.8065 13.5 10.6619 13.9741 9.81802 14.818L11.5858 16.5858ZM13 16V18.5H14V16V13.5H13V16ZM14 16H11.5V17H14H16.5V16H14ZM14 17H11.5C11.5 16.8674 11.5527 16.7402 11.6464 16.6464L13.4142 18.4142L15.182 20.182C16.0259 19.3381 16.5 18.1935 16.5 17H14ZM13.4142 18.4142L11.6464 16.6464C11.7402 16.5527 11.8674 16.5 12 16.5V19V21.5C13.1935 21.5 14.3381 21.0259 15.182 20.182L13.4142 18.4142ZM12 19V16.5H11V19V21.5H12V19ZM11 19H13.5V18H11H8.5V19H11ZM9 19V16.5H8V19V21.5H9V19ZM8 19L8.00312 16.5C7.60462 16.4995 7.22258 16.341 6.9408 16.0592L5.17303 17.827L3.40527 19.5947C4.6232 20.8127 6.27446 21.4978 7.99688 21.5L8 19ZM5.17303 17.827L6.9408 16.0592C6.65902 15.7774 6.5005 15.3954 6.5 14.9969L4 15L1.5 15.0031C1.50215 16.7255 2.18733 18.3768 3.40527 19.5947L5.17303 17.827ZM4 15H6.5V14H4H1.5V15H4ZM4 14V16.5H5V14V11.5H4V14ZM5 14L4.99688 16.5C5.39538 16.5005 5.77742 16.659 6.0592 16.9408L7.82697 15.173L9.59473 13.4053C8.3768 12.1873 6.72554 11.5022 5.00312 11.5L5 14ZM7.82697 15.173L6.0592 16.9408C6.34098 17.2226 6.4995 17.6046 6.5 18.0031L9 18L11.5 17.9969C11.4978 16.2745 10.8127 14.6232 9.59473 13.4053L7.82697 15.173ZM9 18H6.5V19H9H11.5V18H9ZM23 11V8.5H22V11V13.5H23V11ZM22 11L22.0031 8.5C21.6046 8.4995 21.2226 8.34098 20.9408 8.0592L19.173 9.82697L17.4053 11.5947C18.6232 12.8127 20.2745 13.4978 21.9969 13.5L22 11ZM19.173 9.82697L20.9408 8.0592C20.659 7.77742 20.5005 7.39538 20.5 6.99688L18 7L15.5 7.00312C15.5022 8.72554 16.1873 10.3768 17.4053 11.5947L19.173 9.82697ZM18 7H20.5V6H18H15.5V7H18ZM18 6V8.5H19V6V3.5H18V6ZM19 6L18.9969 8.5C19.3954 8.5005 19.7774 8.65902 20.0592 8.9408L21.827 7.17303L23.5947 5.40527C22.3768 4.18733 20.7255 3.50215 19.0031 3.5L19 6ZM21.827 7.17303L20.0592 8.9408C20.341 9.22258 20.4995 9.60462 20.5 10.0031L23 10L25.5 9.99688C25.4978 8.27446 24.8127 6.6232 23.5947 5.40527L21.827 7.17303ZM23 10H20.5V11H23H25.5V10H23Z" fill="white" mask="url(#path-1-inside-1_63804_63862)"/>
</svg>
