<svg width="60" height="58" viewBox="0 0 60 58" fill="none" xmlns="http://www.w3.org/2000/svg">
<path d="M30.4987 51.4193C27.4892 51.4193 24.5092 50.8265 21.7289 49.6748C18.9485 48.5232 16.4222 46.8351 14.2942 44.7071C9.99646 40.4094 7.58203 34.5805 7.58203 28.5026C7.58203 22.4247 9.99646 16.5958 14.2942 12.2981C18.5919 8.00037 24.4208 5.58594 30.4987 5.58594C43.1029 5.58594 53.4154 14.7526 53.4154 26.2109C53.4154 29.8577 51.9667 33.355 49.3881 35.9337C46.8095 38.5123 43.3121 39.9609 39.6654 39.9609H35.5404C34.8529 39.9609 34.3945 40.4193 34.3945 41.1068C34.3945 41.3359 34.6237 41.5651 34.6237 41.7943C35.5404 42.9401 35.9987 44.3151 35.9987 45.6901C36.2279 48.8984 33.707 51.4193 30.4987 51.4193ZM30.4987 10.1693C25.6364 10.1693 20.9732 12.1008 17.5351 15.539C14.0969 18.9771 12.1654 23.6403 12.1654 28.5026C12.1654 33.3649 14.0969 38.0281 17.5351 41.4662C20.9732 44.9044 25.6364 46.8359 30.4987 46.8359C31.1862 46.8359 31.6445 46.3776 31.6445 45.6901C31.6445 45.2318 31.4154 45.0026 31.4154 44.7734C30.4987 43.6276 30.0404 42.4818 30.0404 41.1068C30.0404 37.8984 32.5612 35.3776 35.7695 35.3776H39.6654C42.0965 35.3776 44.4281 34.4118 46.1472 32.6928C47.8663 30.9737 48.832 28.6421 48.832 26.2109C48.832 17.2734 40.582 10.1693 30.4987 10.1693ZM17.8945 23.9193C19.7279 23.9193 21.332 25.5234 21.332 27.3568C21.332 29.1901 19.7279 30.7943 17.8945 30.7943C16.0612 30.7943 14.457 29.1901 14.457 27.3568C14.457 25.5234 16.0612 23.9193 17.8945 23.9193ZM24.7695 14.7526C26.6029 14.7526 28.207 16.3568 28.207 18.1901C28.207 20.0234 26.6029 21.6276 24.7695 21.6276C22.9362 21.6276 21.332 20.0234 21.332 18.1901C21.332 16.3568 22.9362 14.7526 24.7695 14.7526ZM36.2279 14.7526C38.0612 14.7526 39.6654 16.3568 39.6654 18.1901C39.6654 20.0234 38.0612 21.6276 36.2279 21.6276C34.3945 21.6276 32.7904 20.0234 32.7904 18.1901C32.7904 16.3568 34.3945 14.7526 36.2279 14.7526ZM43.1029 23.9193C44.9362 23.9193 46.5404 25.5234 46.5404 27.3568C46.5404 29.1901 44.9362 30.7943 43.1029 30.7943C41.2695 30.7943 39.6654 29.1901 39.6654 27.3568C39.6654 25.5234 41.2695 23.9193 43.1029 23.9193Z" fill="#BA24D5"/>
</svg>
