<svg width="28" height="29" viewBox="0 0 28 29" fill="none" xmlns="http://www.w3.org/2000/svg">
<path d="M20.1288 15.3564C19.7974 18.1156 17.9903 19.2181 17.2098 20.0184C16.4281 20.8211 16.5681 20.9809 16.6206 22.1581C16.6294 22.3037 16.6082 22.4496 16.5584 22.5868C16.5087 22.7239 16.4313 22.8494 16.3312 22.9556C16.2311 23.0617 16.1103 23.1462 15.9763 23.2039C15.8423 23.2616 15.6978 23.2912 15.5519 23.2909H12.4509C12.3051 23.2907 12.1609 23.2607 12.0271 23.2029C11.8932 23.145 11.7725 23.0605 11.6724 22.9545C11.5723 22.8485 11.4949 22.7232 11.4448 22.5863C11.3947 22.4494 11.373 22.3037 11.3811 22.1581C11.3811 21.0031 11.4884 20.7348 10.7931 20.0184C9.90643 19.1318 7.82043 17.8799 7.82043 14.4371C7.81511 13.5819 7.987 12.7349 8.32526 11.9495C8.66353 11.164 9.16085 10.4572 9.78585 9.8735C10.4109 9.2898 11.15 8.8419 11.9567 8.55805C12.7634 8.27419 13.6202 8.16053 14.473 8.22423C15.3258 8.28793 16.1562 8.5276 16.9117 8.92815C17.6673 9.32869 18.3317 9.88142 18.8631 10.5515C19.3945 11.2216 19.7812 11.9944 19.9991 12.8214C20.2169 13.6484 20.2611 14.5115 20.1288 15.3564Z" stroke="white" stroke-width="2.8" stroke-linecap="round" stroke-linejoin="round"/>
<path d="M12.2005 23.2274V24.9914C12.2005 25.4733 12.4689 25.8688 12.799 25.8688H15.1942C15.5267 25.8688 15.7939 25.4721 15.7939 24.9914V23.2274M13.0872 10.9308C12.3983 10.9311 11.7378 11.2049 11.2508 11.6922C10.7638 12.1794 10.4902 12.8401 10.4902 13.5289M22.5512 14.6734H24.6909M20.3975 7.65943L21.9154 6.14159M21.5642 20.6188L23.082 22.1354M13.9972 3.55859V5.28876M6.11052 6.14043L7.61785 7.65943M4.94385 22.1354L6.45119 20.6188M5.44319 14.6734H3.30469" stroke="white" stroke-width="2.77576" stroke-linecap="round" stroke-linejoin="round"/>
</svg>
