<svg width="31" height="31" viewBox="0 0 31 31" fill="none" xmlns="http://www.w3.org/2000/svg">
<path d="M26.5554 10.1172C24.7219 10.1172 23.6977 11.9381 24.115 13.2911L19.626 17.7926C19.2467 17.6788 18.6903 17.6788 18.3109 17.7926L15.0865 14.5682C15.5164 13.2152 14.4922 11.3817 12.646 11.3817C10.8125 11.3817 9.77564 13.2025 10.2056 14.5682L4.43949 20.3216C3.08649 19.9043 1.26562 20.9286 1.26562 22.7621C1.26562 24.153 2.40367 25.2911 3.7946 25.2911C5.62812 25.2911 6.65235 23.4702 6.23507 22.1172L11.9885 16.3511C12.3678 16.4649 12.9242 16.4649 13.3036 16.3511L16.528 19.5756C16.0981 20.9286 17.1223 22.7621 18.9685 22.7621C20.802 22.7621 21.8389 20.9412 21.4089 19.5756L25.9105 15.0866C27.2635 15.5039 29.0844 14.4797 29.0844 12.6462C29.0844 11.2552 27.9464 10.1172 26.5554 10.1172Z" fill="#BA24D5"/>
<path d="M18.9685 11.3799L20.1571 8.76241L22.762 7.58644L20.1571 6.41046L18.9685 3.79297L17.8052 6.41046L15.175 7.58644L17.8052 8.76241L18.9685 11.3799ZM4.42685 13.9089L5.05909 11.3799L7.58807 10.7477L5.05909 10.1154L4.42685 7.58644L3.7946 10.1154L1.26562 10.7477L3.7946 11.3799L4.42685 13.9089Z" fill="#BA24D5"/>
</svg>
