<svg width="32" height="32" viewBox="0 0 32 32" fill="none" xmlns="http://www.w3.org/2000/svg">
<path d="M27.9951 11.668C28.9094 11.6681 29.6611 12.4207 29.6611 13.335C29.6609 14.5298 28.4564 15.2134 27.6094 14.9521L27.0342 14.7754L26.6084 15.2002L21.8623 19.9336L21.4316 20.3623L21.6143 20.9414C21.8824 21.7932 21.1949 23.0008 19.9951 23.001C18.7866 23.001 18.1069 21.7858 18.374 20.9443L18.5586 20.3643L14.3066 16.1123L13.7344 16.2832C13.5485 16.339 13.2291 16.3464 13.0098 16.3047L12.9219 16.2832L12.3496 16.1113L11.9268 16.5352L5.86035 22.6152L5.43555 23.041L5.6123 23.6162C5.87345 24.4633 5.18993 25.6677 3.99512 25.668C3.08074 25.668 2.32812 24.9154 2.32812 24.001C2.32834 22.8062 3.53283 22.1226 4.37988 22.3838L4.95508 22.5605L5.38086 22.1357L11.4609 16.0693L11.8906 15.6406L11.709 15.0605C11.4411 14.2087 12.1283 13.001 13.3281 13.001C14.5368 13.001 15.2156 14.2171 14.9482 15.0586L14.7646 15.6387L19.0166 19.8906L19.5889 19.7188C19.8013 19.6551 20.1878 19.6551 20.4004 19.7188L20.9736 19.8906L21.3965 19.4678L26.1299 14.7207L26.5547 14.2949L26.377 13.7197C26.1159 12.8726 26.8001 11.668 27.9951 11.668Z" fill="white" stroke="white" stroke-width="2"/>
<path d="M19.9948 12L21.2481 9.24L23.9948 8L21.2481 6.76L19.9948 4L18.7681 6.76L15.9948 8L18.7681 9.24L19.9948 12ZM4.66146 14.6667L5.32812 12L7.99479 11.3333L5.32812 10.6667L4.66146 8L3.99479 10.6667L1.32812 11.3333L3.99479 12L4.66146 14.6667Z" fill="white"/>
</svg>
