<svg width="24043" height="3366" viewBox="0 0 24043 3366" fill="none" xmlns="http://www.w3.org/2000/svg">
<path d="M2817.6 2485.31L2498.56 2788.77C2478.65 2807.81 2447.32 2807.81 2427.41 2788.77L1556.14 1960.26C1488.63 1896.04 1378.01 1896.04 1310.33 1960.26L429.713 2797.6C409.805 2816.64 378.472 2816.64 358.564 2797.6L39.5212 2494.13C18.0554 2473.71 18.0554 2439.6 39.5212 2419.18L1031.27 1476.24C1252.34 1266.09 1614.14 1266.09 1835.37 1476.24L2817.78 2410.52C2839.24 2430.95 2839.24 2465.05 2817.78 2485.48L2817.6 2485.31Z" fill="url(#paint0_linear_65982_59468)"/>
<path d="M2798.51 554.125H58.5114C26.1965 554.125 0 580.322 0 612.637V1013.73C0 1046.05 26.1965 1072.25 58.5114 1072.25H2798.51C2830.82 1072.25 2857.02 1046.05 2857.02 1013.73V612.637C2857.02 580.322 2830.82 554.125 2798.51 554.125Z" fill="url(#paint1_linear_65982_59468)"/>
<path d="M4160.89 882.275C4195.17 882.275 4211.27 898.374 4211.27 932.65V1541.31H4533.94C4678.15 1541.31 4721.6 1525.21 4787.9 1438.31L5181.38 912.049C5197.3 891.449 5206.48 882.275 5247.68 882.275H5531.41C5570.36 882.275 5577.11 916.55 5561.18 937.151L5117.33 1511.36C5064.7 1580.08 5023.5 1628.04 4980.05 1664.73C5041.85 1703.68 5096.73 1756.31 5153.85 1829.54L5622.81 2424.34C5634.24 2440.44 5638.91 2483.89 5593.04 2483.89H5300.13C5261.18 2483.89 5252.01 2474.72 5236.08 2454.12L4815.08 1909.51C4753.28 1829.36 4700.65 1806.51 4558.87 1806.51H4211.09V2433.35C4211.09 2467.62 4195.17 2483.72 4160.72 2483.72H3913.69C3879.41 2483.72 3861.06 2467.62 3861.06 2433.35V932.476C3861.06 898.2 3879.41 882.102 3913.69 882.102H4160.72L4160.89 882.275Z" fill="#0D051C"/>
<path d="M6831.42 882.102C6948.09 882.102 7019.07 918.628 7094.54 1055.9L7851.9 2430.92C7868 2460.7 7861.08 2483.55 7824.38 2483.55H7533.73C7503.95 2483.55 7492.53 2476.62 7481.1 2453.77L7318.72 2158.62H6243.36L6085.48 2453.77C6074.06 2476.62 6060.38 2483.55 6032.86 2483.55H5735.45C5696.5 2483.55 5689.75 2460.7 5705.68 2430.92L6456.11 1055.9C6531.59 918.628 6600.31 882.102 6696.39 882.102H6831.42ZM6387.56 1893.24H7174.69L6810.82 1222.78C6803.89 1211.36 6797.14 1206.86 6785.71 1206.86H6772.04C6760.61 1206.86 6753.69 1211.36 6746.94 1222.78L6387.73 1893.24H6387.56Z" fill="#0D051C"/>
<path d="M8345.64 882.102C8379.91 882.102 8396.01 898.2 8396.01 932.476V2433.35C8396.01 2467.62 8380.08 2483.72 8345.64 2483.72H8098.61C8064.33 2483.72 8045.98 2467.62 8045.98 2433.35V932.476C8045.98 898.2 8064.33 882.102 8098.61 882.102H8345.64Z" fill="#0D051C"/>
<path d="M11095 882.102C11129.3 882.102 11147.7 898.2 11147.7 932.476V1149.9C11147.7 1184.18 11129.3 1200.28 11095 1200.28H10102.1C9866.47 1200.28 9797.75 1271.25 9797.75 1511.36V1557.06H11083.6C11117.9 1557.06 11134 1573.16 11134 1607.44V1788.16C11134 1822.44 11118.1 1838.54 11083.6 1838.54H9797.75V2433.35C9797.75 2467.62 9781.65 2483.72 9747.37 2483.72H9500.34C9466.07 2483.72 9447.71 2467.62 9447.71 2433.35V1486.08C9447.71 1046.73 9626.19 882.102 10088.4 882.102H11095Z" fill="#0D051C"/>
<path d="M12703.3 882.102C13167.8 882.102 13344 1046.9 13344 1486.08V1879.57C13344 2318.92 13167.8 2483.55 12703.3 2483.55H11996.4C11534.1 2483.55 11355.7 2318.75 11355.7 1879.57V1486.08C11355.7 1046.73 11534.1 882.102 11996.4 882.102H12703.3ZM11705.7 1854.46C11705.7 2094.74 11774.4 2165.54 12010 2165.54H12689.5C12925.1 2165.54 12993.8 2094.57 12993.8 1854.46V1511.19C12993.8 1270.91 12925.1 1200.11 12689.5 1200.11H12010C11774.4 1200.11 11705.7 1271.08 11705.7 1511.19V1854.46Z" fill="#0D051C"/>
<path d="M13922.8 882.102C13957.1 882.102 13973.2 898.2 13973.2 932.476V1845.46C13973.2 2087.99 14041.9 2158.97 14277.5 2158.97H14911.2C15146.9 2158.97 15213.3 2087.99 15213.3 1845.46V932.476C15213.3 898.2 15229.4 882.102 15263.7 882.102H15513.2C15547.4 882.102 15563.5 898.2 15563.5 932.476V1879.74C15563.5 2319.09 15387.3 2483.72 14922.8 2483.72H14264C13801.8 2483.72 13623.3 2318.92 13623.3 1879.74V932.476C13623.3 898.2 13641.7 882.102 13675.9 882.102H13923H13922.8Z" fill="#0D051C"/>
<path d="M16271 882.102C16417.4 882.102 16449.5 900.451 16536.4 1017.13L17387.6 2133.69C17394.5 2145.12 17403.7 2149.79 17417.3 2149.79H17437.9C17449.4 2149.79 17456.3 2142.87 17456.3 2126.94V932.65C17456.3 898.374 17472.4 882.274 17506.7 882.274H17746.9C17781.2 882.274 17797.3 898.374 17797.3 932.65V2245.87C17797.3 2431.27 17731 2483.89 17591.3 2483.89H17394.5C17255 2483.89 17220.7 2470.22 17129.1 2348.87L16275.7 1232.3C16266.5 1220.88 16259.6 1216.38 16245.9 1216.38H16225.3C16211.6 1216.38 16206.9 1223.3 16206.9 1239.23V2433.52C16206.9 2467.8 16190.8 2483.89 16156.6 2483.89H15916.3C15882 2483.89 15863.7 2467.8 15863.7 2433.52V1120.13C15863.7 934.727 15930 882.102 16069.7 882.102H16271Z" fill="url(#paint2_linear_65982_59468)"/>
<path d="M19240.4 882.448C19736.9 882.448 19940.5 1081.52 19940.5 1527.63V1838.71C19940.5 2284.82 19736.9 2483.89 19240.4 2483.89H18169.5C18123.8 2483.89 18100.8 2461.04 18100.8 2415.17V950.826C18100.8 905.125 18123.7 882.102 18169.5 882.102H19240.4V882.448ZM18451 2136.12C18451 2156.72 18460.2 2165.89 18480.8 2165.89H19231.2C19501.3 2165.89 19590.4 2078.99 19590.4 1808.94V1557.23C19590.4 1287.18 19501.3 1200.28 19231.2 1200.28H18480.8C18460.2 1200.28 18451 1209.45 18451 1232.3V2136.12Z" fill="url(#paint3_linear_65982_59468)"/>
<path d="M21523.3 882.448C21873.3 882.448 22015.3 1044.83 22015.3 1353.83V1484.18C22015.3 1745.06 21914.5 1898.26 21674.4 1941.71L22065.7 2426.77C22079.4 2442.87 22077.1 2483.89 22035.9 2483.89H21740.7C21701.8 2483.89 21690.4 2474.72 21676.7 2454.12L21315.2 1978.24H20576.2V2433.52C20576.2 2467.8 20560.3 2483.89 20525.9 2483.89H20278.8C20244.5 2483.89 20226.2 2467.8 20226.2 2433.52V950.826C20226.2 905.125 20249 882.102 20294.9 882.102H21523.5L21523.3 882.448ZM20576.1 1699.18H21452.3C21608 1699.18 21665.1 1632.88 21665.1 1495.61V1399.53C21665.1 1262.25 21608 1195.95 21452.3 1195.95H20605.8C20585.2 1195.95 20576.1 1205.13 20576.1 1223.48V1699.36V1699.18Z" fill="url(#paint4_linear_65982_59468)"/>
<path d="M22379.2 882.102C22406.7 882.102 22420.4 889.025 22434.1 909.626L23045 1735.54L23660.4 909.626C23674.1 889.025 23687.9 882.102 23715.3 882.102H24014.9C24040 882.102 24051.5 907.202 24035.5 927.802L23214.1 1993.99V2433.35C23214.1 2467.62 23198 2483.72 23163.7 2483.72H22916.7C22882.4 2483.72 22864.1 2467.62 22864.1 2433.35V1993.99L22051.9 927.802C22035.8 907.202 22044.9 882.102 22072.5 882.102H22379H22379.2Z" fill="url(#paint5_linear_65982_59468)"/>
<defs>
<linearGradient id="paint0_linear_65982_59468" x1="-182.753" y1="965.392" x2="2170.69" y2="3119.76" gradientUnits="userSpaceOnUse">
<stop stop-color="#EEABFB"/>
<stop offset="1" stop-color="#9F1AB1"/>
</linearGradient>
<linearGradient id="paint1_linear_65982_59468" x1="629.777" y1="82.052" x2="2977.85" y2="2231.57" gradientUnits="userSpaceOnUse">
<stop stop-color="#EEABFB"/>
<stop offset="1" stop-color="#9F1AB1"/>
</linearGradient>
<linearGradient id="paint2_linear_65982_59468" x1="16499.7" y1="1682.74" x2="31570" y2="1682.74" gradientUnits="userSpaceOnUse">
<stop stop-color="#0D051C"/>
<stop offset="0.48" stop-color="#9F1AB1"/>
</linearGradient>
<linearGradient id="paint3_linear_65982_59468" x1="16499.4" y1="1683.08" x2="31569.7" y2="1683.08" gradientUnits="userSpaceOnUse">
<stop stop-color="#0D051C"/>
<stop offset="0.408654" stop-color="#BA24D5"/>
</linearGradient>
<linearGradient id="paint4_linear_65982_59468" x1="16499" y1="-14113.8" x2="31569.3" y2="-14113.8" gradientUnits="userSpaceOnUse">
<stop stop-color="#0D051C"/>
<stop offset="0.471154" stop-color="#BA24D5"/>
</linearGradient>
<linearGradient id="paint5_linear_65982_59468" x1="16499.3" y1="-14114.1" x2="31569.7" y2="-14114.1" gradientUnits="userSpaceOnUse">
<stop stop-color="#0D051C"/>
<stop offset="0.408654" stop-color="#BA24D5"/>
</linearGradient>
</defs>
</svg>
