<svg width="85" height="84" viewBox="0 0 85 84" fill="none" xmlns="http://www.w3.org/2000/svg">
<path d="M42.4987 0.332031C19.582 0.332031 0.832031 19.082 0.832031 41.9987C0.832031 64.9154 19.582 83.6654 42.4987 83.6654C65.4154 83.6654 84.1654 64.9154 84.1654 41.9987C84.1654 19.082 65.4154 0.332031 42.4987 0.332031ZM42.4987 75.332C24.1237 75.332 9.16536 60.3737 9.16536 41.9987C9.16536 23.6237 24.1237 8.66536 42.4987 8.66536C60.8737 8.66536 75.832 23.6237 75.832 41.9987C75.832 60.3737 60.8737 75.332 42.4987 75.332ZM61.6237 23.582L34.1654 51.0404L23.3737 40.2904L17.4987 46.1654L34.1654 62.832L67.4987 29.4987L61.6237 23.582Z" fill="#BA24D5"/>
</svg>
