<svg width="30" height="31" viewBox="0 0 30 31" fill="none" xmlns="http://www.w3.org/2000/svg">
<path d="M26.25 10.6091C26.25 10.0716 26.18 9.54788 26.0488 9.05163C25.9338 8.61538 25.3963 8.51163 25.0788 8.83038L22.925 10.9841C22.7198 11.1893 22.4762 11.3521 22.2081 11.4631C21.94 11.5742 21.6527 11.6313 21.3625 11.6313C21.0723 11.6313 20.785 11.5742 20.5169 11.4631C20.2488 11.3521 20.0052 11.1893 19.8 10.9841C19.5948 10.7789 19.432 10.5353 19.321 10.2672C19.2099 9.99915 19.1528 9.71181 19.1528 9.42163C19.1528 9.13144 19.2099 8.8441 19.321 8.57601C19.432 8.30791 19.5948 8.06432 19.8 7.85913L21.9538 5.70663C22.2725 5.38788 22.1688 4.85038 21.7325 4.73538C20.663 4.4509 19.5361 4.46399 18.4735 4.77323C17.4108 5.08246 16.4529 5.6761 15.703 6.49004C14.9531 7.30398 14.4399 8.3073 14.2186 9.39166C13.9973 10.476 14.0765 11.6002 14.4475 12.6429C14.5363 12.8929 14.4863 13.1729 14.3 13.3591L4.125 23.5341C3.625 24.0341 3.625 24.8454 4.125 25.3441L5.44 26.6591C5.94 27.1591 6.74875 27.1591 7.24875 26.6591L17.4238 16.4841C17.6113 16.2966 17.8913 16.2466 18.14 16.3354C19.0568 16.6613 20.0384 16.7623 21.0023 16.6298C21.9662 16.4973 22.8842 16.1352 23.679 15.574C24.4738 15.0128 25.1222 14.2689 25.5696 13.4049C26.017 12.5409 26.2504 11.5821 26.25 10.6091Z" stroke="white" stroke-width="3" stroke-linecap="round" stroke-linejoin="round"/>
</svg>
