<svg width="22" height="22" viewBox="0 0 22 22" fill="none" xmlns="http://www.w3.org/2000/svg">
<path d="M19 14.4999V6.99988L12.75 3.48438M9.25 3.48438L3 6.99988V14.4999M4.5 16.8439L11 20.4999L15 18.2499L17.5 16.8439M11 7.99988L12.5 8.87488L14 9.74988V13.2499L12.5 14.1249L11 14.9999L9.5 14.1249L8 13.2499V9.74988L9.5 8.87488L11 7.99988ZM11 7.99988V4.49988M14 12.9999L17.5 14.9999M8 12.9999L4.5 14.9999" stroke="#1E1E1E" stroke-width="2" stroke-linecap="round" stroke-linejoin="round"/>
<path d="M11 4.5C11.8284 4.5 12.5 3.82843 12.5 3C12.5 2.17157 11.8284 1.5 11 1.5C10.1716 1.5 9.5 2.17157 9.5 3C9.5 3.82843 10.1716 4.5 11 4.5Z" stroke="#1E1E1E" stroke-width="2" stroke-linecap="round" stroke-linejoin="round"/>
<path d="M3 17.5C3.82843 17.5 4.5 16.8284 4.5 16C4.5 15.1716 3.82843 14.5 3 14.5C2.17157 14.5 1.5 15.1716 1.5 16C1.5 16.8284 2.17157 17.5 3 17.5Z" stroke="#1E1E1E" stroke-width="2" stroke-linecap="round" stroke-linejoin="round"/>
<path d="M19 17.5C19.8284 17.5 20.5 16.8284 20.5 16C20.5 15.1716 19.8284 14.5 19 14.5C18.1716 14.5 17.5 15.1716 17.5 16C17.5 16.8284 18.1716 17.5 19 17.5Z" stroke="#1E1E1E" stroke-width="2" stroke-linecap="round" stroke-linejoin="round"/>
</svg>
