<svg width="60" height="47" viewBox="0 0 60 47" fill="none" xmlns="http://www.w3.org/2000/svg">
<path d="M31.1701 1.24258C31.3449 1.13476 31.5013 1.00915 31.6353 0.868941H39.7436L39.8544 0.866417C40.4289 0.841403 41.0047 0.841403 41.5792 0.866417H41.6995C43.5015 0.861695 45.2818 1.18006 46.9088 1.79799C49.882 2.72912 52.454 4.32662 54.3145 6.39777C55.7238 7.96585 56.6825 9.76246 57.1223 11.6597C57.5621 13.557 57.4722 15.5082 56.859 17.3746L46.4752 9.20258C46.0308 8.85294 45.4316 8.65703 44.8073 8.65727H29.6953C29.2103 8.673 28.7431 8.80693 28.3565 9.04101L22.394 12.6461C21.7465 13.0385 20.9304 13.21 20.1246 13.1229C19.3189 13.0358 18.5893 12.6973 18.0961 12.1816C17.8528 11.9302 17.6745 11.6429 17.5715 11.3361C17.4685 11.0293 17.4429 10.7093 17.4962 10.3946C17.5495 10.0799 17.6806 9.77676 17.8819 9.5028C18.0832 9.22883 18.3508 8.98948 18.669 8.79865L31.1701 1.24258ZM15.5484 29.1998L15.5041 29.2326L12.4216 31.6764L12.3804 31.7067C11.8406 32.1161 11.1222 32.342 10.3773 32.3363C9.63244 32.3307 8.91955 32.094 8.38959 31.6764C8.12405 31.4674 7.91321 31.2184 7.76931 30.9438C7.6254 30.6693 7.5513 30.3746 7.5513 30.0771C7.5513 29.7795 7.6254 29.4849 7.76931 29.2103C7.91321 28.9358 8.12405 28.6868 8.38959 28.4777L11.4721 26.034C12.009 25.6098 12.7341 25.3719 13.4897 25.3719C14.2453 25.3719 14.9704 25.6098 15.5073 26.034C16.0366 26.4505 16.3379 27.0171 16.3456 27.6101C16.3533 28.2031 16.0668 28.7746 15.5484 29.1998ZM14.6275 33.4865C14.1092 33.9117 13.8226 34.4831 13.8303 35.0762C13.838 35.6692 14.1394 36.2358 14.6686 36.6523C15.7826 37.5359 17.5898 37.5359 18.7038 36.6523L21.7863 34.2085C22.0851 33.9722 22.3139 33.6855 22.456 33.3695C22.598 33.0535 22.6496 32.7162 22.6072 32.3822C22.5647 32.0483 22.4292 31.7261 22.2105 31.4393C21.9918 31.1525 21.6955 30.9083 21.3433 30.7246C20.8025 30.4408 20.1573 30.3113 19.5126 30.3571C18.8679 30.403 18.2616 30.6215 17.7923 30.9771L17.7512 31.0124L14.6686 33.4537L14.6275 33.4865ZM7.95601 22.0603C8.22154 22.2693 8.43239 22.5183 8.57629 22.7928C8.7202 23.0674 8.7943 23.362 8.7943 23.6596C8.7943 23.9572 8.7202 24.2518 8.57629 24.5263C8.43239 24.8009 8.22154 25.0499 7.95601 25.2589L4.87346 27.7027C4.33656 28.1268 3.61149 28.3647 2.85588 28.3647C2.10027 28.3647 1.3752 28.1268 0.838295 27.7027C0.572758 27.4937 0.361917 27.2447 0.218011 26.9701C0.0741043 26.6956 0 26.401 0 26.1034C0 25.8058 0.0741043 25.5112 0.218011 25.2366C0.361917 24.9621 0.572758 24.7131 0.838295 24.5041L3.92084 22.0603C4.45775 21.6361 5.18282 21.3982 5.93843 21.3982C6.69404 21.3982 7.41911 21.6361 7.95601 22.0603ZM28.0622 35.9884C28.3277 36.1974 28.5386 36.4464 28.6825 36.7209C28.8264 36.9955 28.9005 37.2901 28.9005 37.5877C28.9005 37.8853 28.8264 38.1799 28.6825 38.4544C28.5386 38.729 28.3277 38.978 28.0622 39.187L24.9797 41.6308C24.4428 42.0549 23.7177 42.2928 22.9621 42.2928C22.2065 42.2928 21.4814 42.0549 20.9445 41.6308C20.5233 41.2988 20.244 40.8693 20.1462 40.4034C20.0485 39.9375 20.1374 39.4589 20.4001 39.0355L20.4033 39.0305C20.5416 38.8089 20.7244 38.6068 20.9445 38.4322L24.027 35.9884C24.5639 35.5643 25.289 35.3263 26.0446 35.3263C26.8002 35.3263 27.5253 35.5643 28.0622 35.9884ZM7.46229 5.4561C9.56382 3.79089 12.112 2.52819 14.9147 1.7633C17.7173 0.998403 20.7011 0.751292 23.6409 1.04061L15.8048 5.77925C14.9879 6.27142 14.3012 6.88776 13.7845 7.5927C13.2677 8.29765 12.931 9.07725 12.7939 9.88652C12.6568 10.6958 12.722 11.5187 12.9856 12.3078C13.2492 13.0969 13.7062 13.8365 14.33 14.484C15.5879 15.7919 17.4431 16.6499 19.491 16.8708C21.5389 17.0916 23.6132 16.6575 25.2613 15.663L30.5909 12.4441H43.8357L54.9348 21.1792L55.0487 21.2802L58.6883 24.1834C59.507 24.8456 59.9762 25.7331 59.9991 26.6629C60.0221 27.5928 59.597 28.4943 58.8116 29.1817C58.0262 29.8691 56.9402 30.2899 55.7774 30.3577C54.6145 30.4254 53.4634 30.1347 52.5612 29.5456L52.2574 29.3033L52.0675 29.172L48.6083 26.4152C48.4623 26.2946 48.2877 26.1984 48.0947 26.1323C47.9016 26.0661 47.694 26.0313 47.4838 26.0299C47.2737 26.0284 47.0654 26.0603 46.8709 26.1238C46.6764 26.1873 46.4997 26.281 46.3512 26.3995C46.2026 26.518 46.0851 26.659 46.0055 26.8141C45.926 26.9692 45.8859 27.1355 45.8877 27.3031C45.8896 27.4707 45.9332 27.6363 46.0162 27.7903C46.0991 27.9443 46.2196 28.0836 46.3708 28.2L50.0103 31.1033C50.1433 31.2077 50.2783 31.3078 50.4154 31.4037L50.5547 31.5148C50.8594 31.7527 51.102 32.0365 51.2684 32.3497C51.4348 32.6629 51.5216 32.9994 51.5239 33.3395C51.5262 33.6797 51.4439 34.0168 51.2818 34.3314C51.1197 34.6461 50.8809 34.9319 50.5794 35.1724C50.2778 35.413 49.9195 35.6034 49.5251 35.7327C49.1307 35.8621 48.708 35.9277 48.2816 35.9259C47.8552 35.924 47.4335 35.8548 47.0408 35.7221C46.6482 35.5894 46.2924 35.3958 45.9942 35.1527L45.4561 34.7261C45.233 34.5485 44.9484 34.4282 44.6389 34.3805C44.3294 34.3328 44.0091 34.3599 43.7191 34.4584C43.429 34.5568 43.1824 34.7221 43.011 34.9331C42.8395 35.1441 42.7509 35.3911 42.7565 35.6425C42.7519 35.8132 42.7908 35.9829 42.8707 36.1413C42.9507 36.2997 43.0701 36.4435 43.2218 36.564L43.9275 37.127C44.2184 37.3454 44.4513 37.6082 44.6124 37.8998C44.7736 38.1914 44.8597 38.5058 44.8657 38.8244C44.8717 39.143 44.7975 39.4594 44.6474 39.7547C44.4973 40.05 44.2744 40.3183 43.992 40.5436C43.7095 40.7689 43.3732 40.9467 43.003 41.0665C42.6327 41.1862 42.2362 41.2454 41.8367 41.2406C41.4373 41.2358 41.0431 41.1671 40.6776 41.0386C40.3121 40.91 39.9826 40.7242 39.7088 40.4922H39.7056L39.6677 40.4594L39.003 39.9292C38.8567 39.8112 38.6825 39.7174 38.4905 39.6534C38.2984 39.5894 38.0924 39.5565 37.8843 39.5565C37.6761 39.5565 37.4701 39.5894 37.2781 39.6534C37.086 39.7174 36.9118 39.8112 36.7655 39.9292C36.4688 40.166 36.3022 40.487 36.3022 40.8217C36.3022 41.1564 36.4688 41.4774 36.7655 41.7141L37.4554 42.267C37.7395 42.4908 37.9655 42.757 38.1206 43.0505C38.2757 43.3439 38.3568 43.6589 38.3593 43.9774C38.3618 44.2958 38.2857 44.6116 38.1352 44.9066C37.9847 45.2016 37.7629 45.47 37.4823 45.6966C37.2018 45.9232 36.8681 46.1036 36.5002 46.2273C36.1323 46.351 35.7374 46.4157 35.3382 46.4177C34.9389 46.4197 34.5431 46.3589 34.1733 46.2389C33.8035 46.1188 33.467 45.9419 33.1829 45.7181L28.654 42.2847L30.3156 40.9668C30.8752 40.5246 31.3195 39.9983 31.6227 39.4183C31.9259 38.8383 32.082 38.2161 32.082 37.5877C32.082 36.9593 31.9259 36.3371 31.6227 35.7571C31.3195 35.1771 30.8752 34.6508 30.3156 34.2085C29.7243 33.7386 29.0168 33.372 28.2382 33.1321C27.4595 32.8921 26.6268 32.7841 25.793 32.815C25.8299 32.1525 25.6924 31.4913 25.3893 30.8738C25.0862 30.2563 24.6243 29.6964 24.0334 29.2301C23.4424 28.7604 22.7355 28.394 21.9574 28.1541C21.1794 27.9142 20.3473 27.806 19.514 27.8365C19.5504 27.1745 19.4127 26.5137 19.1096 25.8967C18.8066 25.2797 18.3449 24.7202 17.7543 24.2541C17.0026 23.6584 16.0677 23.2307 15.0434 23.014C14.0191 22.7973 12.9414 22.7993 11.9184 23.0196C11.7425 21.9808 11.1405 21.0176 10.2062 20.2804C9.16503 19.4572 7.78494 18.9631 6.32186 18.8898C4.85878 18.8164 3.412 19.1688 2.24981 19.8815C1.50358 17.3221 1.59081 14.6528 2.50319 12.1278C3.41557 9.60284 5.12275 7.30608 7.46229 5.4561Z" fill="white"/>
</svg>
