<svg width="2438" height="2438" viewBox="0 0 2438 2438" fill="none" xmlns="http://www.w3.org/2000/svg">
<path d="M990.293 1143.16C1103.38 1143.16 1184.79 1257.16 1270.99 1377.79C1370.9 1517.68 1484.22 1676.23 1675.66 1676.23C2107.45 1676.23 2268.13 854.543 2284.88 762.398L2135.01 735.136C2098.31 936.178 1934.13 1523.92 1675.66 1523.92C1562.58 1523.92 1481.17 1409.92 1394.97 1289.3C1295.05 1149.4 1181.74 990.855 990.293 990.855C671.519 990.855 423.339 1554.69 304.922 1886.56V153.18H152.617V2133.14C152.678 2173.52 168.743 2212.22 197.293 2240.77C225.843 2269.32 264.547 2285.38 304.922 2285.45H2284.88V2133.14H384.425C499.415 1741.49 759.094 1143.16 990.293 1143.16Z" fill="white"/>
</svg>
