<svg width="16" height="26" viewBox="0 0 16 26" fill="none" xmlns="http://www.w3.org/2000/svg">
<path d="M13.2308 0.529297H3.11492C2.44419 0.529297 1.80093 0.795742 1.32666 1.27002C0.852383 1.74429 0.585938 2.38755 0.585938 3.05828V23.2901C0.585938 23.9608 0.852383 24.6041 1.32666 25.0784C1.80093 25.5527 2.44419 25.8191 3.11492 25.8191H13.2308C13.9016 25.8191 14.5448 25.5527 15.0191 25.0784C15.4934 24.6041 15.7598 23.9608 15.7598 23.2901V3.05828C15.7598 2.38755 15.4934 1.74429 15.0191 1.27002C14.5448 0.795742 13.9016 0.529297 13.2308 0.529297ZM9.43737 24.5546H6.90839V23.2901H9.43737V24.5546ZM13.2308 22.0256H3.11492V4.32277H13.2308V22.0256Z" fill="#BA24D5"/>
</svg>
