<svg width="1998" height="1998" viewBox="0 0 1998 1998" fill="none" xmlns="http://www.w3.org/2000/svg">
<g clip-path="url(#clip0_67599_60193)">
<path d="M998.838 0.609375V154.221C534.548 154.221 153.977 534.792 153.977 999.082C153.977 1463.37 534.548 1843.94 998.838 1843.94C1463.13 1843.94 1843.7 1463.37 1843.7 999.082C1843.7 772.736 1758.44 568.203 1606.06 415.82L1498.07 523.886C1622.27 647.927 1690.09 810.601 1690.09 999.082C1690.09 1379.65 1379.41 1690.33 998.838 1690.33C618.266 1690.33 307.588 1379.65 307.588 999.082C307.588 618.51 618.266 307.832 998.838 307.832V461.443L1382.87 231.026L998.838 0.609375ZM1159.67 504.684L967.655 888.712C943.432 895.256 922.054 909.63 906.855 929.594C891.656 949.559 883.49 973.991 883.629 999.082C883.629 1029.64 895.767 1058.94 917.373 1080.55C938.979 1102.15 968.283 1114.29 998.838 1114.29H1003.68L1250.84 1361.53L1361.28 1251.08L1114.05 1003.92V999.082C1114.05 983.951 1109.74 969.128 1104.45 955.84L1298.84 571.812L1159.67 504.607V504.684Z" fill="white"/>
</g>
<defs>
<clipPath id="clip0_67599_60193">
<rect width="1996.94" height="1996.94" fill="white" transform="translate(0.417969 0.609375)"/>
</clipPath>
</defs>
</svg>
