<svg width="486" height="384" viewBox="0 0 486 384" fill="none" xmlns="http://www.w3.org/2000/svg">
<path d="M478.959 328.271L424.727 379.855C421.343 383.092 416.017 383.092 412.633 379.855L264.531 239.021C253.055 228.104 234.252 228.104 222.746 239.021L73.0553 381.355C69.6713 384.592 64.3452 384.592 60.9612 381.355L6.72882 329.771C3.07998 326.299 3.07998 320.502 6.72882 317.03L175.311 156.746C212.888 121.022 274.389 121.022 311.996 156.746L478.989 315.559C482.638 319.031 482.638 324.828 478.989 328.3L478.959 328.271Z" fill="url(#paint0_linear_66533_59552)"/>
<path d="M475.703 0H9.94604C4.45299 0 0 4.45301 0 9.94605V78.1264C0 83.6194 4.45299 88.0724 9.94604 88.0724H475.703C481.196 88.0724 485.649 83.6194 485.649 78.1264V9.94605C485.649 4.45301 481.196 0 475.703 0Z" fill="url(#paint1_linear_66533_59552)"/>
<defs>
<linearGradient id="paint0_linear_66533_59552" x1="-31.0544" y1="69.9091" x2="368.994" y2="436.117" gradientUnits="userSpaceOnUse">
<stop stop-color="#EEABFB"/>
<stop offset="1" stop-color="#9F1AB1"/>
</linearGradient>
<linearGradient id="paint1_linear_66533_59552" x1="107.052" y1="-80.2451" x2="506.188" y2="285.139" gradientUnits="userSpaceOnUse">
<stop stop-color="#EEABFB"/>
<stop offset="1" stop-color="#9F1AB1"/>
</linearGradient>
</defs>
</svg>
