<svg width="100" height="100" viewBox="0 0 100 100" fill="none" xmlns="http://www.w3.org/2000/svg">
<g style="mix-blend-mode:overlay">
<mask id="mask0_64896_59579" style="mask-type:alpha" maskUnits="userSpaceOnUse" x="0" y="0" width="100" height="100">
<rect width="100" height="100" rx="25" fill="url(#paint0_linear_64896_59579)"/>
</mask>
<g mask="url(#mask0_64896_59579)">
<path opacity="0.3" d="M0 0H100V100L47.5 51L0 0Z" fill="url(#paint1_linear_64896_59579)"/>
</g>
</g>
<path d="M51.1701 31.2387C51.3449 31.1309 51.5013 31.0052 51.6353 30.865H59.7436L59.8544 30.8625C60.4289 30.8375 61.0047 30.8375 61.5792 30.8625H61.6995C63.5015 30.8578 65.2818 31.1762 66.9088 31.7941C69.882 32.7252 72.454 34.3227 74.3145 36.3939C75.7238 37.9619 76.6825 39.7586 77.1223 41.6558C77.5621 43.5531 77.4722 45.5043 76.859 47.3707L66.4752 39.1987C66.0308 38.849 65.4316 38.6531 64.8073 38.6534H49.6953C49.2103 38.6691 48.7431 38.803 48.3565 39.0371L42.394 42.6422C41.7465 43.0346 40.9304 43.2061 40.1246 43.119C39.3189 43.0319 38.5893 42.6934 38.0961 42.1777C37.8528 41.9263 37.6745 41.6389 37.5715 41.3322C37.4685 41.0254 37.4429 40.7054 37.4962 40.3907C37.5495 40.076 37.6806 39.7729 37.8819 39.4989C38.0832 39.2249 38.3508 38.9856 38.669 38.7947L51.1701 31.2387ZM35.5484 59.1959L35.5041 59.2287L32.4216 61.6725L32.3804 61.7028C31.8406 62.1122 31.1222 62.3381 30.3773 62.3324C29.6324 62.3267 28.9196 62.0901 28.3896 61.6725C28.1241 61.4635 27.9132 61.2145 27.7693 60.9399C27.6254 60.6654 27.5513 60.3707 27.5513 60.0732C27.5513 59.7756 27.6254 59.481 27.7693 59.2064C27.9132 58.9319 28.1241 58.6829 28.3896 58.4738L31.4721 56.03C32.009 55.6059 32.7341 55.368 33.4897 55.368C34.2453 55.368 34.9704 55.6059 35.5073 56.03C36.0366 56.4466 36.3379 57.0131 36.3456 57.6062C36.3533 58.1992 36.0668 58.7707 35.5484 59.1959ZM34.6275 63.4826C34.1092 63.9078 33.8226 64.4792 33.8303 65.0723C33.838 65.6653 34.1394 66.2319 34.6686 66.6484C35.7826 67.532 37.5898 67.532 38.7038 66.6484L41.7863 64.2046C42.0851 63.9683 42.3139 63.6816 42.456 63.3656C42.598 63.0496 42.6496 62.7123 42.6072 62.3783C42.5647 62.0443 42.4292 61.7222 42.2105 61.4354C41.9918 61.1486 41.6955 60.9044 41.3433 60.7207C40.8025 60.4369 40.1573 60.3074 39.5126 60.3532C38.8679 60.3991 38.2616 60.6176 37.7923 60.9732L37.7512 61.0085L34.6686 63.4498L34.6275 63.4826ZM27.956 52.0564C28.2215 52.2654 28.4324 52.5144 28.5763 52.7889C28.7202 53.0635 28.7943 53.3581 28.7943 53.6557C28.7943 53.9533 28.7202 54.2479 28.5763 54.5224C28.4324 54.797 28.2215 55.046 27.956 55.255L24.8735 57.6988C24.3366 58.1229 23.6115 58.3608 22.8559 58.3608C22.1003 58.3608 21.3752 58.1229 20.8383 57.6988C20.5728 57.4898 20.3619 57.2408 20.218 56.9662C20.0741 56.6917 20 56.3971 20 56.0995C20 55.8019 20.0741 55.5073 20.218 55.2327C20.3619 54.9582 20.5728 54.7092 20.8383 54.5001L23.9208 52.0564C24.4577 51.6322 25.1828 51.3943 25.9384 51.3943C26.694 51.3943 27.4191 51.6322 27.956 52.0564ZM48.0622 65.9845C48.3277 66.1935 48.5386 66.4425 48.6825 66.717C48.8264 66.9916 48.9005 67.2862 48.9005 67.5838C48.9005 67.8814 48.8264 68.176 48.6825 68.4505C48.5386 68.7251 48.3277 68.9741 48.0622 69.1831L44.9797 71.6269C44.4428 72.051 43.7177 72.2889 42.9621 72.2889C42.2065 72.2889 41.4814 72.051 40.9445 71.6269C40.5233 71.2949 40.244 70.8654 40.1462 70.3995C40.0485 69.9336 40.1374 69.455 40.4001 69.0316L40.4033 69.0266C40.5416 68.805 40.7244 68.6028 40.9445 68.4283L44.027 65.9845C44.5639 65.5603 45.289 65.3224 46.0446 65.3224C46.8002 65.3224 47.5253 65.5603 48.0622 65.9845ZM27.4623 35.4522C29.5638 33.787 32.112 32.5243 34.9147 31.7594C37.7173 30.9945 40.7011 30.7474 43.6409 31.0367L35.8048 35.7753C34.9879 36.2675 34.3012 36.8839 33.7845 37.5888C33.2677 38.2937 32.931 39.0733 32.7939 39.8826C32.6568 40.6919 32.722 41.5148 32.9856 42.3039C33.2492 43.093 33.7062 43.8326 34.33 44.4801C35.5879 45.788 37.4431 46.646 39.491 46.8668C41.5389 47.0877 43.6132 46.6536 45.2613 45.6591L50.5909 42.4402H63.8357L74.9348 51.1753L75.0487 51.2763L78.6883 54.1795C79.507 54.8417 79.9762 55.7292 79.9991 56.659C80.0221 57.5889 79.597 58.4904 78.8116 59.1778C78.0262 59.8651 76.9402 60.286 75.7774 60.3538C74.6145 60.4215 73.4634 60.1308 72.5612 59.5417L72.2574 59.2994L72.0675 59.1681L68.6083 56.4113C68.4623 56.2907 68.2877 56.1945 68.0947 56.1284C67.9016 56.0622 67.694 56.0274 67.4838 56.0259C67.2737 56.0245 67.0654 56.0564 66.8709 56.1199C66.6764 56.1834 66.4997 56.2771 66.3512 56.3956C66.2026 56.5141 66.0851 56.6551 66.0055 56.8102C65.926 56.9653 65.8859 57.1315 65.8877 57.2992C65.8896 57.4668 65.9332 57.6324 66.0162 57.7864C66.0991 57.9404 66.2196 58.0797 66.3708 58.1961L70.0103 61.0994C70.1433 61.2038 70.2783 61.3039 70.4154 61.3998L70.5547 61.5109C70.8594 61.7488 71.102 62.0326 71.2684 62.3458C71.4348 62.659 71.5216 62.9954 71.5239 63.3356C71.5262 63.6758 71.4439 64.0129 71.2818 64.3275C71.1197 64.6421 70.8809 64.928 70.5794 65.1685C70.2778 65.4091 69.9195 65.5995 69.5251 65.7288C69.1307 65.8582 68.708 65.9238 68.2816 65.922C67.8552 65.9201 67.4335 65.8509 67.0408 65.7182C66.6482 65.5854 66.2924 65.3919 65.9942 65.1488L65.4561 64.7222C65.233 64.5446 64.9484 64.4243 64.6389 64.3766C64.3294 64.3289 64.0091 64.356 63.7191 64.4545C63.429 64.5529 63.1824 64.7182 63.011 64.9292C62.8395 65.1402 62.7509 65.3872 62.7565 65.6386C62.7519 65.8093 62.7908 65.979 62.8707 66.1374C62.9507 66.2958 63.0701 66.4396 63.2218 66.5601L63.9275 67.1231C64.2184 67.3415 64.4513 67.6043 64.6124 67.8959C64.7736 68.1875 64.8597 68.5019 64.8657 68.8205C64.8717 69.1391 64.7975 69.4555 64.6474 69.7508C64.4973 70.0461 64.2744 70.3144 63.992 70.5397C63.7095 70.765 63.3732 70.9428 63.003 71.0626C62.6327 71.1823 62.2362 71.2415 61.8367 71.2367C61.4373 71.2319 61.0431 71.1632 60.6776 71.0347C60.3121 70.9061 59.9826 70.7203 59.7088 70.4883H59.7056L59.6677 70.4555L59.003 69.9253C58.8567 69.8073 58.6825 69.7135 58.4905 69.6495C58.2984 69.5855 58.0924 69.5526 57.8843 69.5526C57.6761 69.5526 57.4701 69.5855 57.2781 69.6495C57.086 69.7135 56.9118 69.8073 56.7655 69.9253C56.4688 70.162 56.3022 70.4831 56.3022 70.8178C56.3022 71.1525 56.4688 71.4735 56.7655 71.7102L57.4554 72.2631C57.7395 72.4869 57.9655 72.7531 58.1206 73.0466C58.2757 73.34 58.3568 73.655 58.3593 73.9735C58.3618 74.2919 58.2857 74.6077 58.1352 74.9027C57.9847 75.1977 57.7629 75.4661 57.4823 75.6927C57.2018 75.9193 56.8681 76.0996 56.5002 76.2234C56.1323 76.3471 55.7374 76.4118 55.3382 76.4138C54.9389 76.4158 54.5431 76.355 54.1733 76.235C53.8035 76.1149 53.467 75.938 53.1829 75.7142L48.654 72.2808L50.3156 70.9629C50.8752 70.5207 51.3195 69.9944 51.6227 69.4144C51.9259 68.8344 52.082 68.2122 52.082 67.5838C52.082 66.9554 51.9259 66.3332 51.6227 65.7532C51.3195 65.1732 50.8752 64.6469 50.3156 64.2046C49.7243 63.7347 49.0168 63.3681 48.2382 63.1282C47.4595 62.8882 46.6268 62.7802 45.793 62.8111C45.8299 62.1486 45.6924 61.4874 45.3893 60.8699C45.0862 60.2524 44.6243 59.6925 44.0334 59.2262C43.4424 58.7565 42.7355 58.3901 41.9574 58.1502C41.1794 57.9103 40.3473 57.8021 39.514 57.8326C39.5504 57.1706 39.4127 56.5098 39.1096 55.8928C38.8066 55.2758 38.3449 54.7163 37.7543 54.2502C37.0026 53.6544 36.0677 53.2268 35.0434 53.0101C34.0191 52.7934 32.9414 52.7954 31.9184 53.0157C31.7425 51.9769 31.1405 51.0137 30.2062 50.2765C29.165 49.4533 27.7849 48.9592 26.3219 48.8859C24.8588 48.8125 23.412 49.1649 22.2498 49.8776C21.5036 47.3182 21.5908 44.6489 22.5032 42.1239C23.4156 39.5989 25.1228 37.3022 27.4623 35.4522Z" fill="white"/>
<defs>
<linearGradient id="paint0_linear_64896_59579" x1="2.32558" y1="47.3684" x2="96.5116" y2="47.3684" gradientUnits="userSpaceOnUse">
<stop stop-color="#07569E"/>
<stop offset="1" stop-color="#0093DD"/>
</linearGradient>
<linearGradient id="paint1_linear_64896_59579" x1="94" y1="91.5" x2="-13.5" y2="-23" gradientUnits="userSpaceOnUse">
<stop offset="0.116225" stop-color="white" stop-opacity="0"/>
<stop offset="1" stop-color="white"/>
</linearGradient>
</defs>
</svg>
