<svg width="26" height="29" viewBox="0 0 26 29" fill="none" xmlns="http://www.w3.org/2000/svg">
<path d="M14.4372 3.07976C19.3687 3.07976 23.2887 6.99968 23.2887 11.9312C23.2887 15.4718 21.2655 18.5065 18.2307 19.8975V25.8406H9.37928V22.0471H8.11479C6.72385 22.0471 5.58581 20.9091 5.58581 19.5181V15.7247H3.68907C3.18328 15.7247 2.80393 15.0924 3.18328 14.7131L5.58581 11.5518C5.83871 6.74678 9.63218 3.07976 14.4372 3.07976ZM14.4372 0.550781C8.62058 0.550781 3.81552 4.85005 3.18328 10.5403L1.16009 13.1957C0.4014 14.2073 0.4014 15.4718 0.907196 16.4834C1.41299 17.3685 2.17169 18.0007 3.05683 18.1272V19.5181C3.05683 21.9207 4.70067 23.8174 6.8503 24.4496V28.3696H20.7597V21.4149C23.9209 19.2652 25.8176 15.8511 25.8176 11.9312C25.8176 5.60874 20.7597 0.550781 14.4372 0.550781ZM15.7017 16.9892H13.1727V15.7247H15.7017V16.9892ZM17.7249 11.2989C17.3456 11.8047 16.9662 12.3105 16.334 12.6899V14.4602H12.5405V12.6899C10.7702 11.6783 10.138 9.27576 11.1496 7.50548C12.1612 5.73519 14.5637 5.10295 16.334 6.11454C18.1043 7.12613 18.7365 9.52866 17.7249 11.2989Z" fill="#BA24D5"/>
</svg>
