<svg width="2786" height="2785" viewBox="0 0 2786 2785" fill="none" xmlns="http://www.w3.org/2000/svg">
<path fill-rule="evenodd" clip-rule="evenodd" d="M1973.01 464.258C2061.55 464.258 2134.77 514.62 2188.38 567.535C2244.2 622.423 2295.38 696.225 2340.86 777.57C2432.19 940.725 2511.68 1153.89 2564.24 1364.51C2616.46 1573.5 2645.36 1791.77 2626.91 1963.4C2608.34 2135.72 2519.57 2320.92 2321.14 2320.92C2149.86 2320.92 2013.39 2232.73 1901.76 2143.26L1861.03 2109.73L1803.94 2061.57L1752.42 2018.87C1634.17 1923.13 1529.15 1856.76 1392.8 1856.76C1256.45 1856.76 1151.44 1923.13 1033.19 2018.87L981.668 2061.57L924.575 2109.73L883.96 2143.26C772.096 2232.73 635.631 2320.92 464.47 2320.92C265.923 2320.92 177.151 2135.72 158.7 1963.4C140.366 1791.66 169.144 1573.5 221.363 1364.51C273.929 1153.89 353.418 940.725 444.743 777.454C490.231 696.225 541.406 622.423 597.222 567.419C650.833 514.62 724.055 464.258 812.595 464.258C872.356 464.258 930.725 478.531 988.166 495.589L1056.86 516.593C1068.31 520.151 1079.72 523.516 1091.09 526.688C1191.47 555.467 1294.17 580.299 1392.8 580.299C1491.44 580.299 1594.14 555.467 1694.51 526.688L1797.21 495.705C1855 478.647 1913.83 464.258 1973.01 464.258ZM1973.01 696.341C1928.57 696.341 1882.15 709.802 1837.13 724.539L1783.98 742.062L1758.33 749.952C1655.64 779.195 1526.25 812.383 1392.8 812.383C1259.36 812.383 1129.97 779.195 1027.27 749.952L1001.74 742.062L948.48 724.539C903.455 709.686 857.039 696.341 812.595 696.341C764.089 705.392 720.574 764.225 687.734 818.765L669.399 850.677L647.352 890.827C568.211 1032.17 495.337 1225.03 446.599 1420.79C400.763 1603.67 378.483 1778.89 386.954 1909.32L389.971 1943.32L392.292 1963.75L395.773 1987.88C403.78 2034.42 421.07 2088.84 464.47 2088.84C558.696 2088.84 637.372 2041.96 735.195 1964.21L781.96 1926.15L870.152 1852.35L910.07 1819.86C1033.54 1722.03 1187.99 1624.67 1392.8 1624.67C1597.62 1624.67 1752.07 1722.15 1875.54 1819.86L1915.57 1852.35L2003.76 1926.15L2050.41 1964.21C2148.23 2041.96 2226.79 2088.84 2321.14 2088.84C2360.59 2088.84 2378.46 2043.93 2387.4 2000.77L2391.81 1975.47L2396.1 1938.68C2410.37 1805.7 2388.32 1617.83 2339.12 1420.79C2294.33 1241.39 2229.35 1064.31 2157.87 927.148L2116.21 850.561L2097.87 818.881C2065.03 764.226 2021.52 705.392 1973.01 696.341ZM986.657 928.424C1063.6 928.424 1137.39 958.989 1191.79 1013.39C1246.2 1067.8 1276.76 1141.59 1276.76 1218.53C1276.76 1295.47 1246.2 1369.26 1191.79 1423.66C1137.39 1478.07 1063.6 1508.63 986.657 1508.63C909.717 1508.63 835.928 1478.07 781.523 1423.66C727.118 1369.26 696.553 1295.47 696.553 1218.53C696.553 1141.59 727.118 1067.8 781.523 1013.39C835.928 958.989 909.717 928.424 986.657 928.424ZM1798.95 928.424C1827.37 928.428 1854.8 938.863 1876.04 957.75C1897.28 976.637 1910.85 1002.66 1914.18 1030.89L1914.99 1044.47V1102.49H1973.01C2002.59 1102.52 2031.04 1113.84 2052.54 1134.15C2074.05 1154.45 2086.99 1182.2 2088.72 1211.73C2090.46 1241.25 2080.85 1270.33 2061.87 1293.01C2042.89 1315.69 2015.96 1330.26 1986.59 1333.76L1973.01 1334.57H1914.99V1392.59C1914.96 1422.17 1903.63 1450.62 1883.33 1472.12C1863.03 1493.63 1835.28 1506.57 1805.75 1508.3C1776.22 1510.04 1747.15 1500.43 1724.47 1481.45C1701.79 1462.47 1687.21 1435.54 1683.72 1406.17L1682.91 1392.59V1334.57H1624.89C1595.31 1334.54 1566.86 1323.21 1545.36 1302.91C1523.85 1282.6 1510.91 1254.86 1509.17 1225.33C1507.44 1195.8 1517.05 1166.73 1536.03 1144.05C1555.01 1121.37 1581.94 1106.79 1611.31 1103.3L1624.89 1102.49H1682.91V1044.47C1682.91 1013.69 1695.13 984.174 1716.9 962.412C1738.66 940.65 1768.17 928.424 1798.95 928.424ZM986.657 1160.51C971.269 1160.51 956.511 1166.62 945.63 1177.5C934.749 1188.38 928.637 1203.14 928.637 1218.53C928.637 1233.92 934.749 1248.67 945.63 1259.56C956.511 1270.44 971.269 1276.55 986.657 1276.55C1002.05 1276.55 1016.8 1270.44 1027.68 1259.56C1038.57 1248.67 1044.68 1233.92 1044.68 1218.53C1044.68 1203.14 1038.57 1188.38 1027.68 1177.5C1016.8 1166.62 1002.05 1160.51 986.657 1160.51Z" fill="white"/>
</svg>
