<svg width="50" height="47" viewBox="0 0 50 47" fill="none" xmlns="http://www.w3.org/2000/svg">
<path fill-rule="evenodd" clip-rule="evenodd" d="M0.523438 46.8789V10.4206C0.523438 5.50911 0.523437 3.05599 2.04948 1.52995C3.57552 0.00390613 6.02865 0.00390625 10.9401 0.00390625H36.9818C39.1484 0.00390625 40.8307 0.00390612 42.2005 0.0742186C39.3335 0.392159 36.6846 1.75633 34.7607 3.90557C32.8368 6.05481 31.7732 8.83811 31.7734 11.7227V20.8372L31.5156 46.793L23.9609 44.2747L16.1484 46.8789L8.33594 44.2747L0.523438 46.8789ZM50.0026 20.8372H36.9818V11.7227C36.9818 9.99599 37.6677 8.34004 38.8886 7.1191C40.1096 5.89816 41.7655 5.21224 43.4922 5.21224C45.2189 5.21224 46.8748 5.89816 48.0957 7.1191C49.3167 8.34004 50.0026 9.99599 50.0026 11.7227V20.8372ZM5.73177 10.4206C5.73177 9.72991 6.00614 9.06753 6.49451 8.57915C6.98289 8.09077 7.64527 7.81641 8.33594 7.81641H23.9609C24.6516 7.81641 25.314 8.09077 25.8024 8.57915C26.2907 9.06753 26.5651 9.72991 26.5651 10.4206C26.5651 11.1112 26.2907 11.7736 25.8024 12.262C25.314 12.7504 24.6516 13.0247 23.9609 13.0247H8.33594C7.64527 13.0247 6.98289 12.7504 6.49451 12.262C6.00614 11.7736 5.73177 11.1112 5.73177 10.4206ZM5.73177 20.8372C5.73177 20.1466 6.00614 19.4842 6.49451 18.9958C6.98289 18.5074 7.64527 18.2331 8.33594 18.2331H13.5443C14.2349 18.2331 14.8973 18.5074 15.3857 18.9958C15.8741 19.4842 16.1484 20.1466 16.1484 20.8372C16.1484 21.5279 15.8741 22.1903 15.3857 22.6787C14.8973 23.167 14.2349 23.4414 13.5443 23.4414H8.33594C7.64527 23.4414 6.98289 23.167 6.49451 22.6787C6.00614 22.1903 5.73177 21.5279 5.73177 20.8372ZM5.73177 31.2539C5.73177 30.5632 6.00614 29.9009 6.49451 29.4125C6.98289 28.9241 7.64527 28.6497 8.33594 28.6497H18.7526C19.4433 28.6497 20.1056 28.9241 20.594 29.4125C21.0824 29.9009 21.3568 30.5632 21.3568 31.2539C21.3568 31.9446 21.0824 32.607 20.594 33.0953C20.1056 33.5837 19.4433 33.8581 18.7526 33.8581H8.33594C7.64527 33.8581 6.98289 33.5837 6.49451 33.0953C6.00614 32.607 5.73177 31.9446 5.73177 31.2539Z" fill="white"/>
</svg>
