<svg width="28" height="29" viewBox="0 0 28 29" fill="none" xmlns="http://www.w3.org/2000/svg">
<path d="M24.5264 14.1741V9.10346C24.5257 8.66224 24.4083 8.22906 24.1863 7.84779C23.9642 7.46652 23.6453 7.15071 23.262 6.93233L14.4105 1.86425C14.0252 1.64473 13.5895 1.5293 13.146 1.5293C12.7026 1.5293 12.2668 1.64473 11.8815 1.86425L3.03011 6.93233C2.2474 7.38122 1.76562 8.20946 1.76562 9.10472V19.2434C1.76562 20.1399 2.2474 20.9669 3.03011 21.4145L11.8815 26.4826C12.6655 26.9302 13.6265 26.9302 14.4105 26.4826M13.146 26.819V14.1741M13.146 14.1741L24.185 7.80103M13.146 14.1741L2.10704 7.80103M21.9975 27.4512C22.2571 26.378 22.8075 25.3971 23.5883 24.6163C24.3691 23.8355 25.35 23.2851 26.4232 23.0255C25.35 22.7659 24.3691 22.2154 23.5883 21.4347C22.8075 20.6539 22.2571 19.673 21.9975 18.5998C21.7378 19.673 21.1874 20.6539 20.4066 21.4347C19.6259 22.2154 18.645 22.7659 17.5717 23.0255C18.645 23.2851 19.6259 23.8355 20.4066 24.6163C21.1874 25.3971 21.7378 26.378 21.9975 27.4512Z" stroke="#BA24D5" stroke-width="1.65533" stroke-linecap="round" stroke-linejoin="round"/>
</svg>
