<svg width="31" height="31" viewBox="0 0 31 31" fill="none" xmlns="http://www.w3.org/2000/svg">
<path d="M15.8324 28.3679C14.1718 28.3679 12.5276 28.0409 10.9934 27.4054C9.45926 26.7699 8.06529 25.8385 6.89111 24.6643C4.51973 22.2929 3.1875 19.0767 3.1875 15.723C3.1875 12.3694 4.51973 9.15311 6.89111 6.78173C9.26248 4.41035 12.4788 3.07813 15.8324 3.07812C22.7871 3.07812 28.4773 8.13609 28.4773 14.4585C28.4773 16.4707 27.678 18.4005 26.2551 19.8233C24.8323 21.2461 22.9025 22.0455 20.8904 22.0455H18.6143C18.2349 22.0455 17.982 22.2984 17.982 22.6777C17.982 22.8042 18.1085 22.9306 18.1085 23.0571C18.6143 23.6893 18.8672 24.448 18.8672 25.2067C18.9936 26.977 17.6027 28.3679 15.8324 28.3679ZM15.8324 5.60711C13.1495 5.60711 10.5765 6.67289 8.67936 8.56999C6.78226 10.4671 5.71648 13.0401 5.71648 15.723C5.71648 18.4059 6.78226 20.979 8.67936 22.8761C10.5765 24.7732 13.1495 25.8389 15.8324 25.8389C16.2117 25.8389 16.4646 25.586 16.4646 25.2067C16.4646 24.9538 16.3382 24.8274 16.3382 24.7009C15.8324 24.0687 15.5795 23.4364 15.5795 22.6777C15.5795 20.9074 16.9704 19.5165 18.7407 19.5165H20.8904C22.2318 19.5165 23.5183 18.9836 24.4669 18.0351C25.4154 17.0865 25.9483 15.8 25.9483 14.4585C25.9483 9.52702 21.3962 5.60711 15.8324 5.60711ZM8.87771 13.194C9.8893 13.194 10.7744 14.0792 10.7744 15.0908C10.7744 16.1024 9.8893 16.9875 8.87771 16.9875C7.86611 16.9875 6.98097 16.1024 6.98097 15.0908C6.98097 14.0792 7.86611 13.194 8.87771 13.194ZM12.6712 8.13609C13.6828 8.13609 14.5679 9.02123 14.5679 10.0328C14.5679 11.0444 13.6828 11.9296 12.6712 11.9296C11.6596 11.9296 10.7744 11.0444 10.7744 10.0328C10.7744 9.02123 11.6596 8.13609 12.6712 8.13609ZM18.9936 8.13609C20.0052 8.13609 20.8904 9.02123 20.8904 10.0328C20.8904 11.0444 20.0052 11.9296 18.9936 11.9296C17.982 11.9296 17.0969 11.0444 17.0969 10.0328C17.0969 9.02123 17.982 8.13609 18.9936 8.13609ZM22.7871 13.194C23.7987 13.194 24.6838 14.0792 24.6838 15.0908C24.6838 16.1024 23.7987 16.9875 22.7871 16.9875C21.7755 16.9875 20.8904 16.1024 20.8904 15.0908C20.8904 14.0792 21.7755 13.194 22.7871 13.194Z" fill="#BA24D5"/>
</svg>
