<svg width="32" height="31" viewBox="0 0 32 31" fill="none" xmlns="http://www.w3.org/2000/svg">
<path d="M9.97859 15.174C12.3356 15.174 14.2462 13.2633 14.2462 10.9063C14.2462 8.54937 12.3356 6.63867 9.97859 6.63867C7.62163 6.63867 5.71094 8.54937 5.71094 10.9063C5.71094 13.2633 7.62163 15.174 9.97859 15.174Z" fill="#BA24D5"/>
<path d="M14.8356 17.5448C13.1664 16.6972 11.3242 16.3594 9.97519 16.3594C7.3328 16.3594 1.91406 17.9799 1.91406 21.2198V23.7092H10.805V22.7567C10.805 21.6305 11.2792 20.5014 12.109 19.5601C12.7711 18.8085 13.6981 18.1109 14.8356 17.5448Z" fill="#BA24D5"/>
<path d="M21.1216 17.0703C18.0352 17.0703 11.875 18.9765 11.875 22.7605V25.6056H30.3682V22.7605C30.3682 18.9765 24.2079 17.0703 21.1216 17.0703Z" fill="#BA24D5"/>
<path d="M21.1223 15.1742C24.003 15.1742 26.3383 12.8389 26.3383 9.95821C26.3383 7.07748 24.003 4.74219 21.1223 4.74219C18.2415 4.74219 15.9062 7.07748 15.9062 9.95821C15.9062 12.8389 18.2415 15.1742 21.1223 15.1742Z" fill="#BA24D5"/>
</svg>
