<svg width="21" height="24" viewBox="0 0 21 24" fill="none" xmlns="http://www.w3.org/2000/svg">
<path d="M10.1394 0.792969C12.9339 0.792969 15.1973 3.05641 15.1973 5.85093C15.1973 8.64545 12.9339 10.9089 10.1394 10.9089C7.34483 10.9089 5.0814 8.64545 5.0814 5.85093C5.0814 3.05641 7.34483 0.792969 10.1394 0.792969ZM15.1973 14.1207C15.1973 15.4611 14.8433 18.5843 12.4281 22.0743L11.4038 15.9668L12.5925 13.5896C11.8085 13.5011 10.9866 13.4379 10.1394 13.4379C9.29215 13.4379 8.47023 13.5011 7.68625 13.5896L8.87487 15.9668L7.85063 22.0743C5.43545 18.5843 5.0814 15.4611 5.0814 14.1207C2.05927 15.0058 0.0234375 16.5991 0.0234375 18.4958V23.5538H20.2553V18.4958C20.2553 16.5991 18.2321 15.0058 15.1973 14.1207Z" fill="#BA24D5"/>
</svg>
