<svg width="22" height="21" viewBox="0 0 22 21" fill="none" xmlns="http://www.w3.org/2000/svg">
<path d="M20.3219 3.02767V9.26461L12.1199 1.0626H18.3568C18.878 1.0626 19.3778 1.26964 19.7464 1.63816C20.1149 2.00668 20.3219 2.5065 20.3219 3.02767ZM9.92868 19.6578H3.69173C3.17056 19.6578 2.67074 19.4508 2.30222 19.0823C1.9337 18.7138 1.72667 18.2139 1.72667 17.6928V11.4558L9.92868 19.6578ZM19.1394 18.4753C18.7644 18.8502 18.3193 19.1477 17.8294 19.3506C17.3395 19.5535 16.8145 19.658 16.2842 19.658C15.754 19.658 15.2289 19.5535 14.739 19.3506C14.2492 19.1477 13.804 18.8502 13.4291 18.4753L2.90922 7.95541C2.53428 7.58047 2.23685 7.13536 2.03393 6.64547C1.83101 6.15559 1.72656 5.63053 1.72656 5.10028C1.72656 4.57004 1.83101 4.04498 2.03393 3.5551C2.23685 3.06521 2.53428 2.6201 2.90922 2.24516C3.28416 1.87021 3.72928 1.57279 4.21916 1.36986C4.70904 1.16694 5.2341 1.0625 5.76435 1.0625C6.2946 1.0625 6.81965 1.16694 7.30954 1.36986C7.79942 1.57279 8.24454 1.87021 8.61947 2.24516L19.1394 12.765C19.5143 13.14 19.8117 13.5851 20.0147 14.075C20.2176 14.5649 20.322 15.0899 20.322 15.6202C20.322 16.1504 20.2176 16.6755 20.0147 17.1654C19.8117 17.6552 19.5143 18.1004 19.1394 18.4753Z" stroke="#BA24D5" stroke-width="1.75444" stroke-linecap="round" stroke-linejoin="round"/>
</svg>
