<svg width="24" height="29" viewBox="0 0 24 29" fill="none" xmlns="http://www.w3.org/2000/svg">
<path d="M23.5577 12.9086C23.5577 19.9265 18.7021 26.4892 12.1773 28.0825C5.65252 26.4892 0.796875 19.9265 0.796875 12.9086V5.32163L12.1773 0.263672L23.5577 5.32163V12.9086ZM12.1773 25.5535C16.9191 24.289 21.0287 18.6494 21.0287 13.1868V6.96547L12.1773 3.02026L3.32585 6.96547V13.1868C3.32585 18.6494 7.43545 24.289 12.1773 25.5535ZM15.7179 12.9086V11.0118C15.7179 9.24155 13.9476 7.85061 12.1773 7.85061C10.407 7.85061 8.63671 9.24155 8.63671 11.0118V12.9086C7.87802 12.9086 7.11932 13.6673 7.11932 14.426V18.8517C7.11932 19.7368 7.87802 20.4955 8.63671 20.4955H15.5914C16.4765 20.4955 17.2352 19.7368 17.2352 18.9781V14.5524C17.2352 13.6673 16.4765 12.9086 15.7179 12.9086ZM14.074 12.9086H10.2805V11.0118C10.2805 10.0002 11.1657 9.368 12.1773 9.368C13.1889 9.368 14.074 10.0002 14.074 11.0118V12.9086Z" fill="#BA24D5"/>
</svg>
