<svg width="1998" height="1998" viewBox="0 0 1998 1998" fill="none" xmlns="http://www.w3.org/2000/svg">
<g clip-path="url(#clip0_67599_60192)">
<path fill-rule="evenodd" clip-rule="evenodd" d="M848.106 483.76C855.744 469.626 867.096 457.847 880.939 449.694C894.782 441.541 910.588 437.324 926.652 437.497L1101.39 440.16C1117.41 440.511 1133.03 445.22 1146.57 453.782C1160.12 462.343 1171.08 474.433 1178.27 488.752L1248.16 629.204L1371.64 618.72C1387.45 617.465 1403.31 620.496 1417.54 627.496C1431.77 634.495 1443.86 645.203 1452.51 658.493L1540.71 795.283C1550.19 810.014 1555.01 827.251 1554.57 844.759C1554.12 862.266 1548.43 879.236 1538.22 893.466L1473.32 984.327L1542.38 1075.52C1563.84 1103.81 1566.01 1142.42 1547.7 1173.04L1464.5 1312.49C1456.23 1326.17 1444.39 1337.34 1430.27 1344.82C1416.14 1352.29 1400.25 1355.79 1384.29 1354.93L1253.65 1346.94L1173.28 1511.52C1166 1526.15 1154.8 1538.47 1140.93 1547.11C1127.06 1555.75 1111.07 1560.37 1094.73 1560.45H914.671C898.36 1560.34 882.399 1555.71 868.561 1547.07C854.724 1538.43 843.554 1526.13 836.291 1511.52L760.74 1356.92L620.954 1369.57C604.84 1370.92 588.664 1367.82 574.195 1360.6C559.726 1353.38 547.521 1342.32 538.912 1328.63L450.548 1186.35C441.175 1171.25 436.632 1153.65 437.524 1135.9C438.416 1118.15 444.701 1101.09 455.54 1087L535.418 982.996L471.183 893.3C460.999 879.053 455.331 862.074 454.916 844.567C454.501 827.059 459.356 809.831 468.853 795.117L557.051 658.326C565.696 645.063 577.752 634.372 591.953 627.374C606.154 620.376 621.977 617.329 637.761 618.554L770.392 629.87L848.106 483.76ZM947.62 562.639L869.074 710.413C860.966 725.463 848.659 737.831 833.651 746.015C818.642 754.199 801.579 757.845 784.537 756.509L649.743 745.027L587.505 841.546L653.071 933.072C663.978 948.297 669.705 966.624 669.405 985.351C669.105 1004.08 662.796 1022.21 651.407 1037.08L570.198 1142.59L632.769 1243.43L775.218 1230.45C792.868 1228.82 810.598 1232.59 826.054 1241.27C841.51 1249.95 853.96 1263.12 861.752 1279.04L938.135 1435.64H1071.26L1152.47 1269.72C1160.15 1254.32 1172.16 1241.49 1187.03 1232.82C1201.91 1224.16 1218.99 1220.04 1236.18 1220.97L1368.98 1228.95L1427.55 1130.77L1356.99 1037.58C1345.77 1022.72 1339.59 1004.66 1339.35 986.043C1339.11 967.423 1344.82 949.214 1355.66 934.071L1422.06 841.546L1359.82 745.027L1233.35 755.677C1215.87 757.167 1198.35 753.361 1183.06 744.753C1167.78 736.146 1155.44 723.136 1147.65 707.418L1076.59 564.636L947.62 562.639Z" fill="white"/>
<path d="M1711.35 1232.12C1660.87 1387.96 1560.68 1522.94 1426.15 1616.39C1291.61 1709.84 1130.14 1756.6 966.483 1749.5C802.828 1742.4 646.016 1681.83 520.077 1577.08C394.138 1472.33 306.019 1329.17 269.225 1169.55L410.842 1141.59L141.254 862.687L0.136719 1223.3L149.408 1194.01C191.067 1381.39 293.278 1549.84 440.245 1673.32C587.212 1796.79 770.755 1868.44 962.511 1877.17C1154.27 1885.9 1343.56 1831.23 1501.14 1721.62C1658.72 1612.01 1775.82 1453.55 1834.33 1270.73L1711.35 1232.12ZM1850.47 809.435C1808.79 622.063 1706.56 453.633 1559.59 330.171C1412.61 206.709 1229.06 135.089 1037.31 126.377C845.551 117.665 656.265 172.347 498.697 281.973C341.128 391.598 224.049 550.065 165.55 732.886L284.202 771.493C334.668 615.654 434.839 480.661 569.366 387.2C703.892 293.738 865.354 246.965 1029.01 254.046C1192.66 261.128 1349.48 321.674 1475.43 426.407C1601.38 531.14 1689.51 674.282 1726.33 833.898L1584.71 862.022L1854.3 1140.26L1997.08 780.147L1850.47 809.435Z" fill="white"/>
<path fill-rule="evenodd" clip-rule="evenodd" d="M998.721 936.731C982.171 936.731 966.298 943.306 954.595 955.009C942.892 966.712 936.317 982.585 936.317 999.135C936.317 1015.69 942.892 1031.56 954.595 1043.26C966.298 1054.97 982.171 1061.54 998.721 1061.54C1015.27 1061.54 1031.14 1054.97 1042.85 1043.26C1054.55 1031.56 1061.13 1015.69 1061.13 999.135C1061.13 982.585 1054.55 966.712 1042.85 955.009C1031.14 943.306 1015.27 936.731 998.721 936.731ZM811.508 999.135C811.508 949.483 831.232 901.865 866.341 866.755C901.451 831.646 949.069 811.922 998.721 811.922C1048.37 811.922 1095.99 831.646 1131.1 866.755C1166.21 901.865 1185.93 949.483 1185.93 999.135C1185.93 1048.79 1166.21 1096.41 1131.1 1131.52C1095.99 1166.62 1048.37 1186.35 998.721 1186.35C949.069 1186.35 901.451 1166.62 866.341 1131.52C831.232 1096.41 811.508 1048.79 811.508 999.135Z" fill="white"/>
</g>
<defs>
<clipPath id="clip0_67599_60192">
<rect width="1996.94" height="1996.94" fill="white" transform="translate(0.25 0.664062)"/>
</clipPath>
</defs>
</svg>
