<svg width="50" height="45" viewBox="0 0 50 45" fill="none" xmlns="http://www.w3.org/2000/svg">
<path d="M22.2579 30.5988V25.1164H27.7404V30.5988H22.2579ZM19.5167 8.669H30.4816V4.8724C30.4816 4.45208 30.3062 4.06557 29.9553 3.71286C29.6044 3.36016 29.2179 3.18472 28.7958 3.18655H21.2026C20.7823 3.18655 20.3957 3.36198 20.043 3.71286C19.6903 4.06374 19.5149 4.45025 19.5167 4.8724V8.669ZM4.75795 44.305C3.49516 44.305 2.44161 43.8828 1.59731 43.0385C0.753016 42.1942 0.329952 41.1398 0.328125 39.8751V29.2282H19.5167V31.1251C19.5167 31.7611 19.7269 32.2893 20.1472 32.7096C20.5675 33.1299 21.0957 33.3401 21.7316 33.3401H28.2667C28.9027 33.3401 29.4308 33.1299 29.8512 32.7096C30.2715 32.2893 30.4816 31.7611 30.4816 31.1251V29.2282H49.6702V39.8779C49.6702 41.1389 49.2481 42.1915 48.4038 43.0358C47.5595 43.8801 46.5059 44.3031 45.2431 44.305H4.75795ZM0.328125 26.487V13.0988C0.328125 11.836 0.751188 10.7825 1.59731 9.93819C2.44344 9.09389 3.49607 8.67083 4.75521 8.669H16.7755V4.8724C16.7755 3.61144 17.1986 2.55789 18.0447 1.71177C18.8908 0.86564 19.9444 0.443491 21.2053 0.445318H28.7958C30.0567 0.445318 31.1103 0.867467 31.9564 1.71177C32.8025 2.55606 33.2247 3.60961 33.2229 4.8724V8.669H45.2431C46.5041 8.669 47.5567 9.09206 48.401 9.93819C49.2453 10.7843 49.6684 11.8379 49.6702 13.0988V26.487H30.4816V24.5901C30.4816 23.9541 30.2715 23.4259 29.8512 23.0056C29.4308 22.5853 28.9027 22.3751 28.2667 22.3751H21.7316C21.0957 22.3751 20.5675 22.5853 20.1472 23.0056C19.7269 23.4259 19.5167 23.9541 19.5167 24.5901V26.487H0.328125Z" fill="white"/>
</svg>
