<svg width="50" height="50" viewBox="0 0 50 50" fill="none" xmlns="http://www.w3.org/2000/svg">
<path d="M3.125 0.00390625C2.2962 0.00390625 1.50134 0.333146 0.915291 0.919197C0.32924 1.50525 0 2.3001 0 3.12891L0 46.8789C0 48.6039 1.4 50.0039 3.125 50.0039H46.875C47.7038 50.0039 48.4987 49.6747 49.0847 49.0886C49.6708 48.5026 50 47.7077 50 46.8789V3.12891C50 2.3001 49.6708 1.50525 49.0847 0.919197C48.4987 0.333146 47.7038 0.00390625 46.875 0.00390625L3.125 0.00390625ZM40.5375 15.6289C41.1625 15.6289 41.675 16.1372 41.675 16.7664V25.3872C41.6741 25.6118 41.6068 25.8311 41.4815 26.0175C41.3561 26.2038 41.1785 26.3489 40.9708 26.4345C40.7632 26.52 40.5349 26.5422 40.3147 26.4982C40.0944 26.4542 39.8922 26.346 39.7333 26.1872L36.8917 23.3497L28.5583 31.6831C28.3648 31.8771 28.1349 32.031 27.8818 32.136C27.6287 32.2411 27.3574 32.2951 27.0833 32.2951C26.8093 32.2951 26.538 32.2411 26.2849 32.136C26.0318 32.031 25.8019 31.8771 25.6083 31.6831L20.8333 26.9122L11.8917 35.8539C11.5005 36.2451 10.9699 36.4649 10.4167 36.4649C9.86343 36.4649 9.33286 36.2451 8.94167 35.8539C8.55047 35.4627 8.3307 34.9321 8.3307 34.3789C8.3307 33.8257 8.55047 33.2951 8.94167 32.9039L19.3583 22.4872C19.5519 22.2932 19.7818 22.1393 20.0349 22.0343C20.288 21.9292 20.5593 21.8752 20.8333 21.8752C21.1074 21.8752 21.3787 21.9292 21.6318 22.0343C21.8849 22.1393 22.1148 22.2932 22.3083 22.4872L27.0833 27.2664L33.9458 20.4039L31.1125 17.5706C30.9535 17.4115 30.8452 17.2088 30.8013 16.9882C30.7575 16.7676 30.78 16.539 30.8661 16.3311C30.9521 16.1233 31.0979 15.9457 31.2849 15.8207C31.4719 15.6957 31.6917 15.629 31.9167 15.6289H40.5375Z" fill="white"/>
</svg>
