<svg width="31" height="32" viewBox="0 0 31 32" fill="none" xmlns="http://www.w3.org/2000/svg">
<path d="M17.059 27.0054C15.9146 27.7995 14.0748 27.3747 13.6765 25.7283C13.5956 25.3947 13.4372 25.085 13.214 24.8242C12.9908 24.5634 12.7093 24.359 12.3922 24.2277C12.0751 24.0963 11.7315 24.0417 11.3893 24.0682C11.0471 24.0947 10.716 24.2017 10.4229 24.3804C8.47181 25.569 6.23746 23.3359 7.42608 21.3835C7.6045 21.0906 7.71128 20.7597 7.73775 20.4177C7.76422 20.0758 7.70963 19.7324 7.57841 19.4155C7.4472 19.0986 7.24306 18.8171 6.98259 18.594C6.72212 18.3708 6.41267 18.2123 6.0794 18.1312C3.85895 17.5926 3.85895 14.4339 6.0794 13.8952C6.41297 13.8144 6.72274 13.6559 6.98351 13.4328C7.24427 13.2096 7.44865 12.928 7.58002 12.6109C7.71139 12.2938 7.76604 11.9502 7.73951 11.608C7.71297 11.2658 7.60602 10.9347 7.42734 10.6417C6.23872 8.69056 8.47181 6.45621 10.4242 7.64483C11.6887 8.41364 13.3275 7.73334 13.6765 6.29815C14.2151 4.0777 17.3738 4.0777 17.9125 6.29815C17.9933 6.63172 18.1518 6.94149 18.3749 7.20226C18.5981 7.46302 18.8797 7.6674 19.1968 7.79877C19.5139 7.93014 19.8575 7.98479 20.1997 7.95826C20.5419 7.93172 20.873 7.82477 21.166 7.64609C23.1171 6.45747 25.3515 8.69056 24.1629 10.6429C23.9844 10.9359 23.8777 11.2668 23.8512 11.6087C23.8247 11.9507 23.8793 12.2941 24.0105 12.611C24.1417 12.9279 24.3459 13.2093 24.6064 13.4325C24.8668 13.6556 25.1763 13.8142 25.5095 13.8952C27.3962 14.3529 27.6794 16.7011 26.3618 17.7266" stroke="#BA24D5" stroke-width="2.52898" stroke-linecap="round" stroke-linejoin="round"/>
<path d="M12.0078 16.0122C12.0078 17.0183 12.4075 17.9832 13.1189 18.6946C13.8303 19.406 14.7952 19.8057 15.8013 19.8057C16.8074 19.8057 17.7723 19.406 18.4837 18.6946C19.1951 17.9832 19.5948 17.0183 19.5948 16.0122C19.5948 15.0061 19.1951 14.0412 18.4837 13.3298C17.7723 12.6184 16.8074 12.2188 15.8013 12.2188C14.7952 12.2188 13.8303 12.6184 13.1189 13.3298C12.4075 14.0412 12.0078 15.0061 12.0078 16.0122ZM22.1237 28.6571L28.4462 24.8637L22.1237 21.0702V28.6571Z" stroke="#BA24D5" stroke-width="2.52898" stroke-linecap="round" stroke-linejoin="round"/>
</svg>
