<svg width="24" height="29" viewBox="0 0 24 29" fill="none" xmlns="http://www.w3.org/2000/svg">
<path fill-rule="evenodd" clip-rule="evenodd" d="M13.1683 1.79183C13.1683 1.45647 13.0351 1.13484 12.798 0.897704C12.5608 0.660566 12.2392 0.527344 11.9038 0.527344C11.5685 0.527344 11.2469 0.660566 11.0097 0.897704C10.7726 1.13484 10.6394 1.45647 10.6394 1.79183V24.5527C10.6394 24.888 10.7726 25.2096 11.0097 25.4468C11.2469 25.6839 11.5685 25.8171 11.9038 25.8171C12.2392 25.8171 12.5608 25.6839 12.798 25.4468C13.0351 25.2096 13.1683 24.888 13.1683 24.5527V1.79183ZM0.523438 5.5853C0.523438 4.91458 0.789883 4.27132 1.26416 3.79704C1.73843 3.32277 2.38169 3.05632 3.05242 3.05632H8.11038V5.5853H3.05242V20.7592H8.11038V23.2882H3.05242C2.38169 23.2882 1.73843 23.0217 1.26416 22.5474C0.789883 22.0732 0.523438 21.4299 0.523438 20.7592V5.5853ZM14.4328 4.32081C14.4328 3.98545 14.566 3.66382 14.8032 3.42668C15.0403 3.18955 15.362 3.05632 15.6973 3.05632H16.9618C17.2972 3.05632 17.6188 3.18955 17.8559 3.42668C18.0931 3.66382 18.2263 3.98545 18.2263 4.32081C18.2263 4.65618 18.0931 4.97781 17.8559 5.21494C17.6188 5.45208 17.2972 5.5853 16.9618 5.5853H15.6973C15.362 5.5853 15.0403 5.45208 14.8032 5.21494C14.566 4.97781 14.4328 4.65618 14.4328 4.32081ZM19.4908 4.32081C19.4908 3.98545 19.624 3.66382 19.8611 3.42668C20.0983 3.18955 20.4199 3.05632 20.7553 3.05632C21.426 3.05632 22.0693 3.32277 22.5435 3.79704C23.0178 4.27132 23.2843 4.91458 23.2843 5.5853C23.2843 5.92067 23.151 6.2423 22.9139 6.47943C22.6768 6.71657 22.3551 6.84979 22.0198 6.84979C21.6844 6.84979 21.3628 6.71657 21.1256 6.47943C20.8885 6.2423 20.7553 5.92067 20.7553 5.5853C20.4199 5.5853 20.0983 5.45208 19.8611 5.21494C19.624 4.97781 19.4908 4.65618 19.4908 4.32081ZM22.0198 8.11428C22.3551 8.11428 22.6768 8.24751 22.9139 8.48464C23.151 8.72178 23.2843 9.04341 23.2843 9.37877V10.6433C23.2843 10.9786 23.151 11.3003 22.9139 11.5374C22.6768 11.7745 22.3551 11.9078 22.0198 11.9078C21.6844 11.9078 21.3628 11.7745 21.1256 11.5374C20.8885 11.3003 20.7553 10.9786 20.7553 10.6433V9.37877C20.7553 9.04341 20.8885 8.72178 21.1256 8.48464C21.3628 8.24751 21.6844 8.11428 22.0198 8.11428ZM22.0198 14.4367C22.3551 14.4367 22.6768 14.57 22.9139 14.8071C23.151 15.0442 23.2843 15.3659 23.2843 15.7012V16.9657C23.2843 17.3011 23.151 17.6227 22.9139 17.8598C22.6768 18.097 22.3551 18.2302 22.0198 18.2302C21.6844 18.2302 21.3628 18.097 21.1256 17.8598C20.8885 17.6227 20.7553 17.3011 20.7553 16.9657V15.7012C20.7553 15.3659 20.8885 15.0442 21.1256 14.8071C21.3628 14.57 21.6844 14.4367 22.0198 14.4367ZM22.0198 19.4947C22.3551 19.4947 22.6768 19.6279 22.9139 19.8651C23.151 20.1022 23.2843 20.4238 23.2843 20.7592C23.2843 21.4299 23.0178 22.0732 22.5435 22.5474C22.0693 23.0217 21.426 23.2882 20.7553 23.2882C20.4199 23.2882 20.0983 23.1549 19.8611 22.9178C19.624 22.6807 19.4908 22.359 19.4908 22.0237C19.4908 21.6883 19.624 21.3667 19.8611 21.1295C20.0983 20.8924 20.4199 20.7592 20.7553 20.7592C20.7553 20.4238 20.8885 20.1022 21.1256 19.8651C21.3628 19.6279 21.6844 19.4947 22.0198 19.4947ZM14.4328 22.0237C14.4328 21.6883 14.566 21.3667 14.8032 21.1295C15.0403 20.8924 15.362 20.7592 15.6973 20.7592H16.9618C17.2972 20.7592 17.6188 20.8924 17.8559 21.1295C18.0931 21.3667 18.2263 21.6883 18.2263 22.0237C18.2263 22.359 18.0931 22.6807 17.8559 22.9178C17.6188 23.1549 17.2972 23.2882 16.9618 23.2882H15.6973C15.362 23.2882 15.0403 23.1549 14.8032 22.9178C14.566 22.6807 14.4328 22.359 14.4328 22.0237Z" fill="#BA24D5"/>
</svg>
