<svg width="26" height="26" viewBox="0 0 26 26" fill="none" xmlns="http://www.w3.org/2000/svg">
<path d="M18.6893 15.7032C18.7905 14.8686 18.8664 14.0341 18.8664 13.1742C18.8664 12.3143 18.7905 11.4798 18.6893 10.6452H22.9633C23.1656 11.4545 23.2921 12.3017 23.2921 13.1742C23.2921 14.0467 23.1656 14.8939 22.9633 15.7032M16.4512 22.7337C17.2099 21.3302 17.7915 19.8128 18.1962 18.2322H21.9264C20.7013 20.3417 18.7578 21.9396 16.4512 22.7337ZM16.1351 15.7032H10.2172C10.0908 14.8686 10.0149 14.0341 10.0149 13.1742C10.0149 12.3143 10.0908 11.4671 10.2172 10.6452H16.1351C16.2489 11.4671 16.3374 12.3143 16.3374 13.1742C16.3374 14.0341 16.2489 14.8686 16.1351 15.7032ZM13.1762 23.2395C12.1266 21.7221 11.2794 20.0404 10.761 18.2322H15.5913C15.0729 20.0404 14.2257 21.7221 13.1762 23.2395ZM8.11819 8.11624H4.42588C5.63807 6.00079 7.58035 4.40021 9.88848 3.61465C9.12978 5.01824 8.56076 6.53562 8.11819 8.11624ZM4.42588 18.2322H8.11819C8.56076 19.8128 9.12978 21.3302 9.88848 22.7337C7.58491 21.94 5.64521 20.3416 4.42588 18.2322ZM3.389 15.7032C3.18668 14.8939 3.06023 14.0467 3.06023 13.1742C3.06023 12.3017 3.18668 11.4545 3.389 10.6452H7.66297C7.56181 11.4798 7.48595 12.3143 7.48595 13.1742C7.48595 14.0341 7.56181 14.8686 7.66297 15.7032M13.1762 3.09621C14.2257 4.6136 15.0729 6.30802 15.5913 8.11624H10.761C11.2794 6.30802 12.1266 4.6136 13.1762 3.09621ZM21.9264 8.11624H18.1962C17.7998 6.55031 17.2138 5.0386 16.4512 3.61465C18.7778 4.41128 20.7125 6.01718 21.9264 8.11624ZM13.1762 0.529297C6.18352 0.529297 0.53125 6.2195 0.53125 13.1742C0.53125 16.5278 1.86348 19.7441 4.23486 22.1155C5.40904 23.2897 6.80301 24.2211 8.33716 24.8566C9.87131 25.492 11.5156 25.8191 13.1762 25.8191C16.5298 25.8191 19.7461 24.4869 22.1174 22.1155C24.4888 19.7441 25.8211 16.5278 25.8211 13.1742C25.8211 11.5136 25.494 9.86935 24.8585 8.3352C24.223 6.80105 23.2916 5.40709 22.1174 4.2329C20.9433 3.05871 19.5493 2.1273 18.0151 1.49183C16.481 0.856367 14.8367 0.529297 13.1762 0.529297Z" fill="#BA24D5"/>
</svg>
